<svg xmlns="http://www.w3.org/2000/svg" width="577.6116943359375" height="577.7216186523438" viewBox="-150.60325622558594 -152.7147216796875 577.6116943359375 577.7216186523438"><title>Neo4j Graph Visualization</title><desc>Created using Neo4j (http://www.neo4j.com/)</desc><g class="layer relationships"><g class="relationship" transform="translate(30.334227923156845 393.95720993429836) rotate(361.0733167891098)"><path class="outline" fill="#A5ABB6" stroke="none" d="M 25 0.5 L 28.43008232441764 0.5 L 28.43008232441764 -0.5 L 25 -0.5 Z M 73.99258232441764 0.5 L 77.42266464883528 0.5 L 77.42266464883528 3.5 L 84.42266464883528 0 L 77.42266464883528 -3.5 L 77.42266464883528 -0.5 L 73.99258232441764 -0.5 Z"/><text text-anchor="middle" pointer-events="none" font-size="8px" fill="#000000" x="51.21133232441764" y="3" font-family="sans-serif">ACTED_IN</text></g><g class="relationship" transform="translate(243.64701521041206 358.7837795334584) rotate(520.2911091765935)"><path class="outline" fill="#A5ABB6" stroke="none" d="M 25 0.5 L 28.90640131477806 0.5 L 28.90640131477806 -0.5 L 25 -0.5 Z M 74.46890131477807 0.5 L 78.37530262955612 0.5 L 78.37530262955612 3.5 L 85.37530262955612 0 L 78.37530262955612 -3.5 L 78.37530262955612 -0.5 L 74.46890131477807 -0.5 Z"/><text text-anchor="middle" pointer-events="none" font-size="8px" fill="#000000" x="51.68765131477806" y="3" transform="rotate(180 51.68765131477806 0)" font-family="sans-serif">ACTED_IN</text></g><g class="relationship" transform="translate(127.4677954962667 288.7843581097088) rotate(443.4718147256361)"><path class="outline" fill="#A5ABB6" stroke="none" d="M 25 0.5 L 27.679900051046467 0.5 L 27.679900051046467 -0.5 L 25 -0.5 Z M 73.24240005104647 0.5 L 75.92230010209293 0.5 L 75.92230010209293 3.5 L 82.92230010209293 0 L 75.92230010209293 -3.5 L 75.92230010209293 -0.5 L 73.24240005104647 -0.5 Z"/><text text-anchor="middle" pointer-events="none" font-size="8px" fill="#000000" x="50.46115005104647" y="3" font-family="sans-serif">ACTED_IN</text></g><g class="relationship" transform="translate(365.2940561303813 143.19046482628937) rotate(244.40012455884903)"><path class="outline" fill="#A5ABB6" stroke="none" d="M 25 0.5 L 28.746799471392492 0.5 L 28.746799471392492 -0.5 L 25 -0.5 Z M 74.30929947139249 0.5 L 78.05609894278498 0.5 L 78.05609894278498 3.5 L 85.05609894278498 0 L 78.05609894278498 -3.5 L 78.05609894278498 -0.5 L 74.30929947139249 -0.5 Z"/><text text-anchor="middle" pointer-events="none" font-size="8px" fill="#000000" x="51.52804947139249" y="3" transform="rotate(180 51.52804947139249 0)" font-family="sans-serif">ACTED_IN</text></g><g class="relationship" transform="translate(398.0084543649104 -24.28462203526276) rotate(499.63747851723497)"><path class="outline" fill="#A5ABB6" stroke="none" d="M 25 0.5 L 26.39056589904788 0.5 L 26.39056589904788 -0.5 L 25 -0.5 Z M 71.95306589904789 0.5 L 73.34363179809576 0.5 L 73.34363179809576 3.5 L 80.34363179809576 0 L 73.34363179809576 -3.5 L 73.34363179809576 -0.5 L 71.95306589904789 -0.5 Z"/><text text-anchor="middle" pointer-events="none" font-size="8px" fill="#000000" x="49.17181589904788" y="3" transform="rotate(180 49.17181589904788 0)" font-family="sans-serif">ACTED_IN</text></g><g class="relationship" transform="translate(214.09154871282487 70.02163270224935) rotate(345.8747324048368)"><path class="outline" fill="#A5ABB6" stroke="none" d="M 25 0.5 L 27.15907120829202 0.5 L 27.15907120829202 -0.5 L 25 -0.5 Z M 72.72157120829202 0.5 L 74.88064241658404 0.5 L 74.88064241658404 3.5 L 81.88064241658404 0 L 74.88064241658404 -3.5 L 74.88064241658404 -0.5 L 72.72157120829202 -0.5 Z"/><text text-anchor="middle" pointer-events="none" font-size="8px" fill="#000000" x="49.94032120829202" y="3" font-family="sans-serif">ACTED_IN</text></g><g class="relationship" transform="translate(278.09769600938114 -62.79767824216565) rotate(429.6244363999792)"><path class="outline" fill="#A5ABB6" stroke="none" d="M 25 0.5 L 30.648763537434313 0.5 L 30.648763537434313 -0.5 L 25 -0.5 Z M 76.21126353743432 0.5 L 81.86002707486863 0.5 L 81.86002707486863 3.5 L 88.86002707486863 0 L 81.86002707486863 -3.5 L 81.86002707486863 -0.5 L 76.21126353743432 -0.5 Z"/><text text-anchor="middle" pointer-events="none" font-size="8px" fill="#000000" x="53.43001353743431" y="3" font-family="sans-serif">ACTED_IN</text></g><g class="relationship" transform="translate(8.28920235658752 -4.8132809156398615) rotate(257.52479783015696)"><path class="outline" fill="#A5ABB6" stroke="none" d="M 25 0.5 L 34.60707284044892 0.5 L 34.60707284044892 -0.5 L 25 -0.5 Z M 80.16957284044892 0.5 L 89.77664568089784 0.5 L 89.77664568089784 3.5 L 96.77664568089784 0 L 89.77664568089784 -3.5 L 89.77664568089784 -0.5 L 80.16957284044892 -0.5 Z"/><text text-anchor="middle" pointer-events="none" font-size="8px" fill="#000000" x="57.38832284044892" y="3" transform="rotate(180 57.38832284044892 0)" font-family="sans-serif">ACTED_IN</text></g><g class="relationship" transform="translate(8.28920235658752 -4.8132809156398615) rotate(519.2239158197335)"><path class="outline" fill="#A5ABB6" stroke="none" d="M 25 0.5 L 43.18190433331122 0.5 L 43.18190433331122 -0.5 L 25 -0.5 Z M 88.74440433331122 0.5 L 106.92630866662245 0.5 L 106.92630866662245 3.5 L 113.92630866662245 0 L 106.92630866662245 -3.5 L 106.92630866662245 -0.5 L 88.74440433331122 -0.5 Z"/><text text-anchor="middle" pointer-events="none" font-size="8px" fill="#000000" x="65.96315433331122" y="3" transform="rotate(180 65.96315433331122 0)" font-family="sans-serif">ACTED_IN</text></g><g class="relationship" transform="translate(8.28920235658752 -4.8132809156398615) rotate(487.7694272854098)"><path class="outline" fill="#A5ABB6" stroke="none" d="M 25 0.5 L 25.454937590405578 0.5 L 25.454937590405578 -0.5 L 25 -0.5 Z M 71.01743759040558 0.5 L 71.47237518081116 0.5 L 71.47237518081116 3.5 L 78.47237518081116 0 L 71.47237518081116 -3.5 L 71.47237518081116 -0.5 L 71.01743759040558 -0.5 Z"/><text text-anchor="middle" pointer-events="none" font-size="8px" fill="#000000" x="48.23618759040558" y="3" transform="rotate(180 48.23618759040558 0)" font-family="sans-serif">ACTED_IN</text></g><g class="relationship" transform="translate(-111.97269481141261 -48.28876764148262) rotate(321.2432325451241)"><path class="outline" fill="#A5ABB6" stroke="none" d="M 25 0.5 L 33.961629422258284 0.5 L 33.961629422258284 -0.5 L 25 -0.5 Z M 79.52412942225828 0.5 L 88.48575884451657 0.5 L 88.48575884451657 3.5 L 95.48575884451657 0 L 88.48575884451657 -3.5 L 88.48575884451657 -0.5 L 79.52412942225828 -0.5 Z"/><text text-anchor="middle" pointer-events="none" font-size="8px" fill="#000000" x="56.742879422258284" y="3" font-family="sans-serif">ACTED_IN</text></g><g class="relationship" transform="translate(-111.97269481141261 -48.28876764148262) rotate(455.9276671822935)"><path class="outline" fill="#A5ABB6" stroke="none" d="M 25 0.5 L 25.458827783031772 0.5 L 25.458827783031772 -0.5 L 25 -0.5 Z M 60.79476528303177 0.5 L 61.253593066063544 0.5 L 61.253593066063544 3.5 L 68.25359306606354 0 L 61.253593066063544 -3.5 L 61.253593066063544 -0.5 L 60.79476528303177 -0.5 Z"/><text text-anchor="middle" pointer-events="none" font-size="8px" fill="#000000" x="43.12679653303177" y="3" transform="rotate(180 43.12679653303177 0)" font-family="sans-serif">ACTE…</text></g><g class="relationship" transform="translate(-111.97269481141261 -48.28876764148262) rotate(425.57638815564945)"><path class="outline" fill="#A5ABB6" stroke="none" d="M 25 0.5 L 42.50880792460643 0.5 L 42.50880792460643 -0.5 L 25 -0.5 Z M 88.07130792460643 0.5 L 105.58011584921286 0.5 L 105.58011584921286 3.5 L 112.58011584921286 0 L 105.58011584921286 -3.5 L 105.58011584921286 -0.5 L 88.07130792460643 -0.5 Z"/><text text-anchor="middle" pointer-events="none" font-size="8px" fill="#000000" x="65.29005792460643" y="3" font-family="sans-serif">ACTED_IN</text></g><g class="relationship" transform="translate(-50.124662629700104 -30.081755656506928) rotate(288.92754595639184)"><path class="outline" fill="#A5ABB6" stroke="none" d="M 25 0.5 L 25.435933911232866 0.5 L 25.435933911232866 -0.5 L 25 -0.5 Z M 66.54921516123287 0.5 L 66.98514907246573 0.5 L 66.98514907246573 3.5 L 73.98514907246573 0 L 66.98514907246573 -3.5 L 66.98514907246573 -0.5 L 66.54921516123287 -0.5 Z"/><text text-anchor="middle" pointer-events="none" font-size="8px" fill="#000000" x="45.992574536232866" y="3" font-family="sans-serif">ACTED…</text></g><g class="relationship" transform="translate(-50.124662629700104 -30.081755656506928) rotate(493.7958650062905)"><path class="outline" fill="#A5ABB6" stroke="none" d="M 25 0.5 L 25.358337819742772 0.5 L 25.358337819742772 -0.5 L 25 -0.5 Z M 70.92083781974277 0.5 L 71.27917563948554 0.5 L 71.27917563948554 3.5 L 78.27917563948554 0 L 71.27917563948554 -3.5 L 71.27917563948554 -0.5 L 70.92083781974277 -0.5 Z"/><text text-anchor="middle" pointer-events="none" font-size="8px" fill="#000000" x="48.13958781974277" y="3" transform="rotate(180 48.13958781974277 0)" font-family="sans-serif">ACTED_IN</text></g><g class="relationship" transform="translate(-50.124662629700104 -30.081755656506928) rotate(452.6533045277041)"><path class="outline" fill="#A5ABB6" stroke="none" d="M 25 0.5 L 27.306959568669498 0.5 L 27.306959568669498 -0.5 L 25 -0.5 Z M 72.8694595686695 0.5 L 75.176419137339 0.5 L 75.176419137339 3.5 L 82.176419137339 0 L 75.176419137339 -3.5 L 75.176419137339 -0.5 L 72.8694595686695 -0.5 Z"/><text text-anchor="middle" pointer-events="none" font-size="8px" fill="#000000" x="50.0882095686695" y="3" transform="rotate(180 50.0882095686695 0)" font-family="sans-serif">ACTED_IN</text></g><g class="relationship" transform="translate(-88.680630842714 187.71977588301067) rotate(286.87590225768565)"><path class="outline" fill="#A5ABB6" stroke="none" d="M 25 0.5 L 31.580529580406008 0.5 L 31.580529580406008 -0.5 L 25 -0.5 Z M 77.14302958040601 0.5 L 83.72355916081202 0.5 L 83.72355916081202 3.5 L 90.72355916081202 0 L 83.72355916081202 -3.5 L 83.72355916081202 -0.5 L 77.14302958040601 -0.5 Z"/><text text-anchor="middle" pointer-events="none" font-size="8px" fill="#000000" x="54.36177958040601" y="3" font-family="sans-serif">ACTED_IN</text></g></g><g class="layer nodes"><g class="node" transform="translate(30.334227923156845,393.95720993429836)"><circle class="outline" cx="0" cy="0" r="25" fill="#F79767" stroke="#f36924" stroke-width="2px"/><text text-anchor="middle" pointer-events="none" font-family="sans-serif" dy="1.5625" font-size="25" fill="#FFFFFF"/><text text-anchor="middle" pointer-events="none" font-family="sans-serif" dy="1.5625" font-size="25" fill="#FFFFFF"/><text text-anchor="middle" pointer-events="none" x="0" y="0" font-size="10px" fill="#FFFFFF" font-family="sans-serif"> Tom</text><text text-anchor="middle" pointer-events="none" x="0" y="10" font-size="10px" fill="#FFFFFF" font-family="sans-serif"> Hanks</text></g><g class="node" transform="translate(139.73769372395105,396.0068951847495)"><circle class="outline" cx="0" cy="0" r="25" fill="#57C7E3" stroke="#23b3d7" stroke-width="2px"/><text text-anchor="middle" pointer-events="none" font-family="sans-serif" dy="1.5625" font-size="25" fill="#2A2C34"/><text text-anchor="middle" pointer-events="none" font-family="sans-serif" dy="1.5625" font-size="25" fill="#2A2C34"/><text text-anchor="middle" pointer-events="none" x="0" y="0" font-size="10px" fill="#2A2C34" font-family="sans-serif"> Cloud</text><text text-anchor="middle" pointer-events="none" x="0" y="10" font-size="10px" fill="#2A2C34" font-family="sans-serif"> Atlas</text></g><g class="node" transform="translate(243.64701521041206,358.7837795334584)"><circle class="outline" cx="0" cy="0" r="25" fill="#F79767" stroke="#f36924" stroke-width="2px"/><text text-anchor="middle" pointer-events="none" font-family="sans-serif" dy="1.5625" font-size="25" fill="#FFFFFF"/><text text-anchor="middle" pointer-events="none" font-family="sans-serif" dy="1.5625" font-size="25" fill="#FFFFFF"/><text text-anchor="middle" pointer-events="none" x="0" y="0" font-size="10px" fill="#FFFFFF" font-family="sans-serif"> Jim</text><text text-anchor="middle" pointer-events="none" x="0" y="10" font-size="10px" fill="#FFFFFF" font-family="sans-serif"> Broadb…</text></g><g class="node" transform="translate(127.4677954962667,288.7843581097088)"><circle class="outline" cx="0" cy="0" r="25" fill="#F79767" stroke="#f36924" stroke-width="2px"/><text text-anchor="middle" pointer-events="none" font-family="sans-serif" dy="1.5625" font-size="25" fill="#FFFFFF"/><text text-anchor="middle" pointer-events="none" font-family="sans-serif" dy="1.5625" font-size="25" fill="#FFFFFF"/><text text-anchor="middle" pointer-events="none" x="0" y="0" font-size="10px" fill="#FFFFFF" font-family="sans-serif"> Halle</text><text text-anchor="middle" pointer-events="none" x="0" y="10" font-size="10px" fill="#FFFFFF" font-family="sans-serif"> Berry</text></g><g class="node" transform="translate(365.2940561303813,143.19046482628937)"><circle class="outline" cx="0" cy="0" r="25" fill="#F79767" stroke="#f36924" stroke-width="2px"/><text text-anchor="middle" pointer-events="none" font-family="sans-serif" dy="1.5625" font-size="25" fill="#FFFFFF"/><text text-anchor="middle" pointer-events="none" x="0" y="5" font-size="10px" fill="#FFFFFF" font-family="sans-serif"> John Hurt</text></g><g class="node" transform="translate(317.74059997902367,43.93819169078388)"><circle class="outline" cx="0" cy="0" r="25" fill="#57C7E3" stroke="#23b3d7" stroke-width="2px"/><text text-anchor="middle" pointer-events="none" font-family="sans-serif" dy="1.5625" font-size="25" fill="#2A2C34"/><text text-anchor="middle" pointer-events="none" font-family="sans-serif" dy="1.5625" font-size="25" fill="#2A2C34"/><text text-anchor="middle" pointer-events="none" x="0" y="0" font-size="10px" fill="#2A2C34" font-family="sans-serif"> V for</text><text text-anchor="middle" pointer-events="none" x="0" y="10" font-size="10px" fill="#2A2C34" font-family="sans-serif"> Vendetta</text></g><g class="node" transform="translate(398.0084543649104,-24.28462203526276)"><circle class="outline" cx="0" cy="0" r="25" fill="#F79767" stroke="#f36924" stroke-width="2px"/><text text-anchor="middle" pointer-events="none" font-family="sans-serif" dy="1.5625" font-size="25" fill="#FFFFFF"/><text text-anchor="middle" pointer-events="none" font-family="sans-serif" dy="1.5625" font-size="25" fill="#FFFFFF"/><text text-anchor="middle" pointer-events="none" x="0" y="0" font-size="10px" fill="#FFFFFF" font-family="sans-serif"> Stephen</text><text text-anchor="middle" pointer-events="none" x="0" y="10" font-size="10px" fill="#FFFFFF" font-family="sans-serif"> Rea</text></g><g class="node" transform="translate(214.09154871282487,70.02163270224935)"><circle class="outline" cx="0" cy="0" r="25" fill="#F79767" stroke="#f36924" stroke-width="2px"/><text text-anchor="middle" pointer-events="none" font-family="sans-serif" dy="1.5625" font-size="25" fill="#FFFFFF"/><text text-anchor="middle" pointer-events="none" font-family="sans-serif" dy="1.5625" font-size="25" fill="#FFFFFF"/><text text-anchor="middle" pointer-events="none" x="0" y="0" font-size="10px" fill="#FFFFFF" font-family="sans-serif"> Natalie</text><text text-anchor="middle" pointer-events="none" x="0" y="10" font-size="10px" fill="#FFFFFF" font-family="sans-serif"> Portman</text></g><g class="node" transform="translate(278.09769600938114,-62.79767824216565)"><circle class="outline" cx="0" cy="0" r="25" fill="#F79767" stroke="#f36924" stroke-width="2px"/><text text-anchor="middle" pointer-events="none" font-family="sans-serif" dy="1.5625" font-size="25" fill="#FFFFFF"/><text text-anchor="middle" pointer-events="none" x="0" y="5" font-size="10px" fill="#FFFFFF" font-family="sans-serif"> Ben Miles</text></g><g class="node" transform="translate(8.28920235658752,-4.8132809156398615)"><circle class="outline" cx="0" cy="0" r="25" fill="#F79767" stroke="#f36924" stroke-width="2px"/><text text-anchor="middle" pointer-events="none" font-family="sans-serif" dy="1.5625" font-size="25" fill="#FFFFFF"/><text text-anchor="middle" pointer-events="none" font-family="sans-serif" dy="1.5625" font-size="25" fill="#FFFFFF"/><text text-anchor="middle" pointer-events="none" x="0" y="0" font-size="10px" fill="#FFFFFF" font-family="sans-serif"> Laurence</text><text text-anchor="middle" pointer-events="none" x="0" y="10" font-size="10px" fill="#FFFFFF" font-family="sans-serif"> Fishbur…</text></g><g class="node" transform="translate(-18.01662928951451,-123.71473025372772)"><circle class="outline" cx="0" cy="0" r="25" fill="#57C7E3" stroke="#23b3d7" stroke-width="2px"/><text text-anchor="middle" pointer-events="none" font-family="sans-serif" dy="1.5625" font-size="25" fill="#2A2C34"/><text text-anchor="middle" pointer-events="none" font-family="sans-serif" dy="1.5625" font-size="25" fill="#2A2C34"/><text text-anchor="middle" pointer-events="none" font-family="sans-serif" dy="1.5625" font-size="25" fill="#2A2C34"/><text text-anchor="middle" pointer-events="none" x="0" y="-5" font-size="10px" fill="#2A2C34" font-family="sans-serif"> The</text><text text-anchor="middle" pointer-events="none" x="0" y="5" font-size="10px" fill="#2A2C34" font-family="sans-serif"> Matrix</text><text text-anchor="middle" pointer-events="none" x="0" y="15" font-size="10px" fill="#2A2C34" font-family="sans-serif"> Revol…</text></g><g class="node" transform="translate(-111.97269481141261,-48.28876764148262)"><circle class="outline" cx="0" cy="0" r="25" fill="#F79767" stroke="#f36924" stroke-width="2px"/><text text-anchor="middle" pointer-events="none" font-family="sans-serif" dy="1.5625" font-size="25" fill="#FFFFFF"/><text text-anchor="middle" pointer-events="none" x="0" y="5" font-size="10px" fill="#FFFFFF" font-family="sans-serif"> Carrie-A…</text></g><g class="node" transform="translate(-50.124662629700104,-30.081755656506928)"><circle class="outline" cx="0" cy="0" r="25" fill="#F79767" stroke="#f36924" stroke-width="2px"/><text text-anchor="middle" pointer-events="none" font-family="sans-serif" dy="1.5625" font-size="25" fill="#FFFFFF"/><text text-anchor="middle" pointer-events="none" font-family="sans-serif" dy="1.5625" font-size="25" fill="#FFFFFF"/><text text-anchor="middle" pointer-events="none" x="0" y="0" font-size="10px" fill="#FFFFFF" font-family="sans-serif"> Keanu</text><text text-anchor="middle" pointer-events="none" x="0" y="10" font-size="10px" fill="#FFFFFF" font-family="sans-serif"> Reeves</text></g><g class="node" transform="translate(-121.60325916695501,44.46620446203715)"><circle class="outline" cx="0" cy="0" r="25" fill="#57C7E3" stroke="#23b3d7" stroke-width="2px"/><text text-anchor="middle" pointer-events="none" font-family="sans-serif" dy="1.5625" font-size="25" fill="#2A2C34"/><text text-anchor="middle" pointer-events="none" font-family="sans-serif" dy="1.5625" font-size="25" fill="#2A2C34"/><text text-anchor="middle" pointer-events="none" font-family="sans-serif" dy="1.5625" font-size="25" fill="#2A2C34"/><text text-anchor="middle" pointer-events="none" x="0" y="-5" font-size="10px" fill="#2A2C34" font-family="sans-serif"> The</text><text text-anchor="middle" pointer-events="none" x="0" y="5" font-size="10px" fill="#2A2C34" font-family="sans-serif"> Matrix</text><text text-anchor="middle" pointer-events="none" x="0" y="15" font-size="10px" fill="#2A2C34" font-family="sans-serif"> Reloa…</text></g><g class="node" transform="translate(-88.680630842714,187.71977588301067)"><circle class="outline" cx="0" cy="0" r="25" fill="#F79767" stroke="#f36924" stroke-width="2px"/><text text-anchor="middle" pointer-events="none" font-family="sans-serif" dy="1.5625" font-size="25" fill="#FFFFFF"/><text text-anchor="middle" pointer-events="none" font-family="sans-serif" dy="1.5625" font-size="25" fill="#FFFFFF"/><text text-anchor="middle" pointer-events="none" x="0" y="0" font-size="10px" fill="#FFFFFF" font-family="sans-serif"> Emil</text><text text-anchor="middle" pointer-events="none" x="0" y="10" font-size="10px" fill="#FFFFFF" font-family="sans-serif"> Eifrem</text></g><g class="node" transform="translate(-55.08611095316059,76.97976333905093)"><circle class="outline" cx="0" cy="0" r="25" fill="#57C7E3" stroke="#23b3d7" stroke-width="2px"/><text text-anchor="middle" pointer-events="none" font-family="sans-serif" dy="1.5625" font-size="25" fill="#2A2C34"/><text text-anchor="middle" pointer-events="none" font-family="sans-serif" dy="1.5625" font-size="25" fill="#2A2C34"/><text text-anchor="middle" pointer-events="none" x="0" y="0" font-size="10px" fill="#2A2C34" font-family="sans-serif"> The</text><text text-anchor="middle" pointer-events="none" x="0" y="10" font-size="10px" fill="#2A2C34" font-family="sans-serif"> Matrix</text></g></g></svg>