<svg xmlns="http://www.w3.org/2000/svg" width="286.4938049316406" height="265.75146484375" viewBox="-53.31758499145508 -31.877336502075195 286.4938049316406 265.75146484375"><title>Neo4j Graph Visualization</title><desc>Created using Neo4j (http://www.neo4j.com/)</desc><g class="layer relationships"><g class="relationship" transform="translate(157.0052094767404 193.29586919914965) rotate(233.57527911201112)"><path class="outline" fill="#A5ABB6" stroke="none" d="M 25 0.5 L 30.81438783418764 0.5 L 30.81438783418764 -0.5 L 25 -0.5 Z M 76.37688783418764 0.5 L 82.19127566837528 0.5 L 82.19127566837528 3.5 L 89.19127566837528 0 L 82.19127566837528 -3.5 L 82.19127566837528 -0.5 L 76.37688783418764 -0.5 Z"/><text text-anchor="middle" pointer-events="none" font-size="8px" fill="#000000" x="53.59563783418764" y="3" transform="rotate(180 53.59563783418764 0)" font-family="sans-serif">ACTED_IN</text></g><g class="relationship" transform="translate(204.1762129721204 99.7903609942157) rotate(539.1913000220621)"><path class="outline" fill="#A5ABB6" stroke="none" d="M 25 0.5 L 36.105964568151286 0.5 L 36.105964568151286 -0.5 L 25 -0.5 Z M 71.87940206815128 0.5 L 82.98536663630257 0.5 L 82.98536663630257 3.5 L 89.98536663630257 0 L 82.98536663630257 -3.5 L 82.98536663630257 -0.5 L 71.87940206815128 -0.5 Z"/><text text-anchor="middle" pointer-events="none" font-size="8px" fill="#000000" x="53.992683318151286" y="3" transform="rotate(180 53.992683318151286 0)" font-family="sans-serif">WROTE</text></g><g class="relationship" transform="translate(150.07537060816554 4.064401436543488) rotate(482.0180915560843)"><path class="outline" fill="#A5ABB6" stroke="none" d="M 25 0.5 L 30.46185621784879 0.5 L 30.46185621784879 -0.5 L 25 -0.5 Z M 77.35248121784879 0.5 L 82.81433743569758 0.5 L 82.81433743569758 3.5 L 89.81433743569758 0 L 82.81433743569758 -3.5 L 82.81433743569758 -0.5 L 77.35248121784879 -0.5 Z"/><text text-anchor="middle" pointer-events="none" font-size="8px" fill="#000000" x="53.90716871784879" y="3" transform="rotate(180 53.90716871784879 0)" font-family="sans-serif">DIRECTED</text></g><g class="relationship" transform="translate(41.06107726521904 -2.8773363487534396) rotate(425.22164450993097)"><path class="outline" fill="#A5ABB6" stroke="none" d="M 25 0.5 L 31.151551878127627 0.5 L 31.151551878127627 -0.5 L 25 -0.5 Z M 76.71405187812763 0.5 L 82.86560375625525 0.5 L 82.86560375625525 3.5 L 89.86560375625525 0 L 82.86560375625525 -3.5 L 82.86560375625525 -0.5 L 76.71405187812763 -0.5 Z"/><text text-anchor="middle" pointer-events="none" font-size="8px" fill="#000000" x="53.93280187812763" y="3" font-family="sans-serif">ACTED_IN</text></g><g class="relationship" transform="translate(-24.317584412189586 101.73608701370063) rotate(359.83706587352526)"><path class="outline" fill="#A5ABB6" stroke="none" d="M 25 0.5 L 30.478921586155828 0.5 L 30.478921586155828 -0.5 L 25 -0.5 Z M 76.04142158615582 0.5 L 81.52034317231166 0.5 L 81.52034317231166 3.5 L 88.52034317231166 0 L 81.52034317231166 -3.5 L 81.52034317231166 -0.5 L 76.04142158615582 -0.5 Z"/><text text-anchor="middle" pointer-events="none" font-size="8px" fill="#000000" x="53.26017158615583" y="3" font-family="sans-serif">ACTED_IN</text></g><g class="relationship" transform="translate(40.941925388705954 204.8741370310583) rotate(295.00717652450476)"><path class="outline" fill="#A5ABB6" stroke="none" d="M 25 0.5 L 35.694836242386884 0.5 L 35.694836242386884 -0.5 L 25 -0.5 Z M 71.46827374238688 0.5 L 82.16310998477377 0.5 L 82.16310998477377 3.5 L 89.16310998477377 0 L 82.16310998477377 -3.5 L 82.16310998477377 -0.5 L 71.46827374238688 -0.5 Z"/><text text-anchor="middle" pointer-events="none" font-size="8px" fill="#000000" x="53.581554992386884" y="3" font-family="sans-serif">WROTE</text></g></g><g class="layer nodes"><g class="node" transform="translate(89.20229975000773,101.41326545197987)"><circle class="outline" cx="0" cy="0" r="25" fill="#57C7E3" stroke="#23b3d7" stroke-width="2px"/><text text-anchor="middle" pointer-events="none" font-family="sans-serif" dy="1.5625" font-size="25" fill="#2A2C34"/><text text-anchor="middle" pointer-events="none" font-family="sans-serif" dy="1.5625" font-size="25" fill="#2A2C34"/><text text-anchor="middle" pointer-events="none" font-family="sans-serif" dy="1.5625" font-size="25" fill="#2A2C34"/><text text-anchor="middle" pointer-events="none" x="0" y="-5" font-size="10px" fill="#2A2C34" font-family="sans-serif"> Captain</text><text text-anchor="middle" pointer-events="none" x="0" y="5" font-size="10px" fill="#2A2C34" font-family="sans-serif"> America:</text><text text-anchor="middle" pointer-events="none" x="0" y="15" font-size="10px" fill="#2A2C34" font-family="sans-serif"> The Fi…</text></g><g class="node" transform="translate(157.0052094767404,193.29586919914965)"><circle class="outline" cx="0" cy="0" r="25" fill="#F79767" stroke="#f36924" stroke-width="2px"/><text text-anchor="middle" pointer-events="none" font-family="sans-serif" dy="1.5625" font-size="25" fill="#FFFFFF"/><text text-anchor="middle" pointer-events="none" font-family="sans-serif" dy="1.5625" font-size="25" fill="#FFFFFF"/><text text-anchor="middle" pointer-events="none" x="0" y="0" font-size="10px" fill="#FFFFFF" font-family="sans-serif"> Hugo</text><text text-anchor="middle" pointer-events="none" x="0" y="10" font-size="10px" fill="#FFFFFF" font-family="sans-serif"> Weaving</text></g><g class="node" transform="translate(204.1762129721204,99.7903609942157)"><circle class="outline" cx="0" cy="0" r="25" fill="#F79767" stroke="#f36924" stroke-width="2px"/><text text-anchor="middle" pointer-events="none" font-family="sans-serif" dy="1.5625" font-size="25" fill="#FFFFFF"/><text text-anchor="middle" pointer-events="none" font-family="sans-serif" dy="1.5625" font-size="25" fill="#FFFFFF"/><text text-anchor="middle" pointer-events="none" x="0" y="0" font-size="10px" fill="#FFFFFF" font-family="sans-serif"> Stephen</text><text text-anchor="middle" pointer-events="none" x="0" y="10" font-size="10px" fill="#FFFFFF" font-family="sans-serif"> McFeely</text></g><g class="node" transform="translate(150.07537060816554,4.064401436543488)"><circle class="outline" cx="0" cy="0" r="25" fill="#F79767" stroke="#f36924" stroke-width="2px"/><text text-anchor="middle" pointer-events="none" font-family="sans-serif" dy="1.5625" font-size="25" fill="#FFFFFF"/><text text-anchor="middle" pointer-events="none" font-family="sans-serif" dy="1.5625" font-size="25" fill="#FFFFFF"/><text text-anchor="middle" pointer-events="none" x="0" y="0" font-size="10px" fill="#FFFFFF" font-family="sans-serif"> Joe</text><text text-anchor="middle" pointer-events="none" x="0" y="10" font-size="10px" fill="#FFFFFF" font-family="sans-serif"> Johnston</text></g><g class="node" transform="translate(41.06107726521904,-2.8773363487534396)"><circle class="outline" cx="0" cy="0" r="25" fill="#F79767" stroke="#f36924" stroke-width="2px"/><text text-anchor="middle" pointer-events="none" font-family="sans-serif" dy="1.5625" font-size="25" fill="#FFFFFF"/><text text-anchor="middle" pointer-events="none" font-family="sans-serif" dy="1.5625" font-size="25" fill="#FFFFFF"/><text text-anchor="middle" pointer-events="none" font-family="sans-serif" dy="1.5625" font-size="25" fill="#FFFFFF"/><text text-anchor="middle" pointer-events="none" x="0" y="-5" font-size="10px" fill="#FFFFFF" font-family="sans-serif"> Samuel</text><text text-anchor="middle" pointer-events="none" x="0" y="5" font-size="10px" fill="#FFFFFF" font-family="sans-serif"> L.</text><text text-anchor="middle" pointer-events="none" x="0" y="15" font-size="10px" fill="#FFFFFF" font-family="sans-serif"> Jackson</text></g><g class="node" transform="translate(-24.317584412189586,101.73608701370063)"><circle class="outline" cx="0" cy="0" r="25" fill="#F79767" stroke="#f36924" stroke-width="2px"/><text text-anchor="middle" pointer-events="none" font-family="sans-serif" dy="1.5625" font-size="25" fill="#FFFFFF"/><text text-anchor="middle" pointer-events="none" font-family="sans-serif" dy="1.5625" font-size="25" fill="#FFFFFF"/><text text-anchor="middle" pointer-events="none" x="0" y="0" font-size="10px" fill="#FFFFFF" font-family="sans-serif"> Chris</text><text text-anchor="middle" pointer-events="none" x="0" y="10" font-size="10px" fill="#FFFFFF" font-family="sans-serif"> Evans</text></g><g class="node" transform="translate(40.941925388705954,204.8741370310583)"><circle class="outline" cx="0" cy="0" r="25" fill="#F79767" stroke="#f36924" stroke-width="2px"/><text text-anchor="middle" pointer-events="none" font-family="sans-serif" dy="1.5625" font-size="25" fill="#FFFFFF"/><text text-anchor="middle" pointer-events="none" x="0" y="5" font-size="10px" fill="#FFFFFF" font-family="sans-serif"> Christop…</text></g></g></svg>