<svg xmlns="http://www.w3.org/2000/svg" width="237.66781616210938" height="246.53564453125" viewBox="-9.410917282104492 -10.685932159423828 237.66781616210938 246.53564453125"><title>Neo4j Graph Visualization</title><desc>Created using Neo4j (http://www.neo4j.com/)</desc><g class="layer relationships"><g class="relationship" transform="translate(125.44825452154367 127.2274018639097) rotate(407.6202334282113)"><path class="outline" fill="#A5ABB6" stroke="none" d="M 25 0.5 L 27.612766075937138 0.5 L 27.612766075937138 -0.5 L 25 -0.5 Z M 73.17526607593715 0.5 L 75.78803215187428 0.5 L 75.78803215187428 3.5 L 82.78803215187428 0 L 75.78803215187428 -3.5 L 75.78803215187428 -0.5 L 73.17526607593715 -0.5 Z"/><text text-anchor="middle" pointer-events="none" font-size="8px" fill="#000000" x="50.39401607593714" y="3" font-family="sans-serif">ACTED_IN</text></g><g class="relationship" transform="translate(125.44825452154367 127.2274018639097) rotate(310.82127440888814)"><path class="outline" fill="#A5ABB6" stroke="none" d="M 25 0.5 L 30.173125026875496 0.5 L 30.173125026875496 -0.5 L 25 -0.5 Z M 75.7356250268755 0.5 L 80.90875005375099 0.5 L 80.90875005375099 3.5 L 87.90875005375099 0 L 80.90875005375099 -3.5 L 80.90875005375099 -0.5 L 75.7356250268755 -0.5 Z"/><text text-anchor="middle" pointer-events="none" font-size="8px" fill="#000000" x="52.954375026875496" y="3" font-family="sans-serif">ACTED_IN</text></g><g class="relationship" transform="translate(125.44825452154367 127.2274018639097) rotate(254.14392885837628)"><path class="outline" fill="#A5ABB6" stroke="none" d="M 25 0.5 L 30.32939097064414 0.5 L 30.32939097064414 -0.5 L 25 -0.5 Z M 75.89189097064414 0.5 L 81.22128194128828 0.5 L 81.22128194128828 3.5 L 88.22128194128828 0 L 81.22128194128828 -3.5 L 81.22128194128828 -0.5 L 75.89189097064414 -0.5 Z"/><text text-anchor="middle" pointer-events="none" font-size="8px" fill="#000000" x="53.11064097064414" y="3" transform="rotate(180 53.11064097064414 0)" font-family="sans-serif">ACTED_IN</text></g><g class="relationship" transform="translate(125.44825452154367 127.2274018639097) rotate(200.78320471144735)"><path class="outline" fill="#A5ABB6" stroke="none" d="M 25 0.5 L 30.332187900529654 0.5 L 30.332187900529654 -0.5 L 25 -0.5 Z M 75.89468790052965 0.5 L 81.22687580105931 0.5 L 81.22687580105931 3.5 L 88.22687580105931 0 L 81.22687580105931 -3.5 L 81.22687580105931 -0.5 L 75.89468790052965 -0.5 Z"/><text text-anchor="middle" pointer-events="none" font-size="8px" fill="#000000" x="53.113437900529654" y="3" transform="rotate(180 53.113437900529654 0)" font-family="sans-serif">ACTED_IN</text></g><g class="relationship" transform="translate(125.44825452154367 127.2274018639097) rotate(504.15634821943706)"><path class="outline" fill="#A5ABB6" stroke="none" d="M 25 0.5 L 30.18500780462997 0.5 L 30.18500780462997 -0.5 L 25 -0.5 Z M 75.74750780462998 0.5 L 80.93251560925994 0.5 L 80.93251560925994 3.5 L 87.93251560925994 0 L 80.93251560925994 -3.5 L 80.93251560925994 -0.5 L 75.74750780462998 -0.5 Z"/><text text-anchor="middle" pointer-events="none" font-size="8px" fill="#000000" x="52.96625780462997" y="3" transform="rotate(180 52.96625780462997 0)" font-family="sans-serif">ACTED_IN</text></g></g><g class="layer nodes"><g class="node" transform="translate(125.44825452154367,127.2274018639097)"><circle class="outline" cx="0" cy="0" r="25" fill="#F79767" stroke="#f36924" stroke-width="2px"/><text text-anchor="middle" pointer-events="none" font-family="sans-serif" dy="1.5625" font-size="25" fill="#FFFFFF"/><text text-anchor="middle" pointer-events="none" font-family="sans-serif" dy="1.5625" font-size="25" fill="#FFFFFF"/><text text-anchor="middle" pointer-events="none" x="0" y="0" font-size="10px" fill="#FFFFFF" font-family="sans-serif"> Hugo</text><text text-anchor="middle" pointer-events="none" x="0" y="10" font-size="10px" fill="#FFFFFF" font-family="sans-serif"> Weaving</text></g><g class="node" transform="translate(198.1018686675001,206.84971171927603)"><circle class="outline" cx="0" cy="0" r="25" fill="#57C7E3" stroke="#23b3d7" stroke-width="2px"/><text text-anchor="middle" pointer-events="none" font-family="sans-serif" dy="1.5625" font-size="25" fill="#2A2C34"/><text text-anchor="middle" pointer-events="none" font-family="sans-serif" dy="1.5625" font-size="25" fill="#2A2C34"/><text text-anchor="middle" pointer-events="none" x="0" y="0" font-size="10px" fill="#2A2C34" font-family="sans-serif"> Cloud</text><text text-anchor="middle" pointer-events="none" x="0" y="10" font-size="10px" fill="#2A2C34" font-family="sans-serif"> Atlas</text></g><g class="node" transform="translate(199.25688933384194,41.78343621480604)"><circle class="outline" cx="0" cy="0" r="25" fill="#57C7E3" stroke="#23b3d7" stroke-width="2px"/><text text-anchor="middle" pointer-events="none" font-family="sans-serif" dy="1.5625" font-size="25" fill="#2A2C34"/><text text-anchor="middle" pointer-events="none" font-family="sans-serif" dy="1.5625" font-size="25" fill="#2A2C34"/><text text-anchor="middle" pointer-events="none" x="0" y="0" font-size="10px" fill="#2A2C34" font-family="sans-serif"> V for</text><text text-anchor="middle" pointer-events="none" x="0" y="10" font-size="10px" fill="#2A2C34" font-family="sans-serif"> Vendetta</text></g><g class="node" transform="translate(94.51373568422983,18.314068296652813)"><circle class="outline" cx="0" cy="0" r="25" fill="#57C7E3" stroke="#23b3d7" stroke-width="2px"/><text text-anchor="middle" pointer-events="none" font-family="sans-serif" dy="1.5625" font-size="25" fill="#2A2C34"/><text text-anchor="middle" pointer-events="none" font-family="sans-serif" dy="1.5625" font-size="25" fill="#2A2C34"/><text text-anchor="middle" pointer-events="none" font-family="sans-serif" dy="1.5625" font-size="25" fill="#2A2C34"/><text text-anchor="middle" pointer-events="none" x="0" y="-5" font-size="10px" fill="#2A2C34" font-family="sans-serif"> The</text><text text-anchor="middle" pointer-events="none" x="0" y="5" font-size="10px" fill="#2A2C34" font-family="sans-serif"> Matrix</text><text text-anchor="middle" pointer-events="none" x="0" y="15" font-size="10px" fill="#2A2C34" font-family="sans-serif"> Revol…</text></g><g class="node" transform="translate(19.58908211934139,87.05077903434223)"><circle class="outline" cx="0" cy="0" r="25" fill="#57C7E3" stroke="#23b3d7" stroke-width="2px"/><text text-anchor="middle" pointer-events="none" font-family="sans-serif" dy="1.5625" font-size="25" fill="#2A2C34"/><text text-anchor="middle" pointer-events="none" font-family="sans-serif" dy="1.5625" font-size="25" fill="#2A2C34"/><text text-anchor="middle" pointer-events="none" font-family="sans-serif" dy="1.5625" font-size="25" fill="#2A2C34"/><text text-anchor="middle" pointer-events="none" x="0" y="-5" font-size="10px" fill="#2A2C34" font-family="sans-serif"> The</text><text text-anchor="middle" pointer-events="none" x="0" y="5" font-size="10px" fill="#2A2C34" font-family="sans-serif"> Matrix</text><text text-anchor="middle" pointer-events="none" x="0" y="15" font-size="10px" fill="#2A2C34" font-family="sans-serif"> Reloa…</text></g><g class="node" transform="translate(33.90313322011943,193.35790804481886)"><circle class="outline" cx="0" cy="0" r="25" fill="#57C7E3" stroke="#23b3d7" stroke-width="2px"/><text text-anchor="middle" pointer-events="none" font-family="sans-serif" dy="1.5625" font-size="25" fill="#2A2C34"/><text text-anchor="middle" pointer-events="none" font-family="sans-serif" dy="1.5625" font-size="25" fill="#2A2C34"/><text text-anchor="middle" pointer-events="none" x="0" y="0" font-size="10px" fill="#2A2C34" font-family="sans-serif"> The</text><text text-anchor="middle" pointer-events="none" x="0" y="10" font-size="10px" fill="#2A2C34" font-family="sans-serif"> Matrix</text></g></g></svg>