<svg xmlns="http://www.w3.org/2000/svg" width="385.8290100097656" height="434.2281799316406" viewBox="-97.4629135131836 -94.32250213623047 385.8290100097656 434.2281799316406"><title>Neo4j Graph Visualization</title><desc>Created using Neo4j (http://www.neo4j.com/)</desc><g class="layer relationships"><g class="relationship" transform="translate(180.06452215286927 210.2490420463758) rotate(480.36104191530194)"><path class="outline" fill="#A5ABB6" stroke="none" d="M 25 0.5 L 32.04624588692531 0.5 L 32.04624588692531 -0.5 L 25 -0.5 Z M 77.6087458869253 0.5 L 84.65499177385063 0.5 L 84.65499177385063 3.5 L 91.65499177385063 0 L 84.65499177385063 -3.5 L 84.65499177385063 -0.5 L 77.6087458869253 -0.5 Z"/><text text-anchor="middle" pointer-events="none" font-size="8px" fill="#000000" x="54.82749588692531" y="3" transform="rotate(180 54.82749588692531 0)" font-family="sans-serif">ACTED_IN</text></g><g class="relationship" transform="translate(180.06452215286927 210.2490420463758) rotate(406.18175456519117)"><path class="outline" fill="#A5ABB6" stroke="none" d="M 25 0.5 L 29.185702048226375 0.5 L 29.185702048226375 -0.5 L 25 -0.5 Z M 74.74820204822637 0.5 L 78.93390409645275 0.5 L 78.93390409645275 3.5 L 85.93390409645275 0 L 78.93390409645275 -3.5 L 78.93390409645275 -0.5 L 74.74820204822637 -0.5 Z"/><text text-anchor="middle" pointer-events="none" font-size="8px" fill="#000000" x="51.966952048226375" y="3" font-family="sans-serif">ACTED_IN</text></g><g class="relationship" transform="translate(180.06452215286927 210.2490420463758) rotate(239.08560064020423)"><path class="outline" fill="#A5ABB6" stroke="none" d="M 25 0.5 L 25.31575320902519 0.5 L 25.31575320902519 -0.5 L 25 -0.5 Z M 66.42903445902519 0.5 L 66.74478766805038 0.5 L 66.74478766805038 3.5 L 73.74478766805038 0 L 66.74478766805038 -3.5 L 66.74478766805038 -0.5 L 66.42903445902519 -0.5 Z"/><text text-anchor="middle" pointer-events="none" font-size="8px" fill="#000000" x="45.87239383402519" y="3" transform="rotate(180 45.87239383402519 0)" font-family="sans-serif">ACTED…</text></g><g class="relationship" transform="translate(180.06452215286927 210.2490420463758) rotate(265.38517934388153)"><path class="outline" fill="#A5ABB6" stroke="none" d="M 25 0.5 L 38.45473805350538 0.5 L 38.45473805350538 -0.5 L 25 -0.5 Z M 84.01723805350538 0.5 L 97.47197610701076 0.5 L 97.47197610701076 3.5 L 104.47197610701076 0 L 97.47197610701076 -3.5 L 97.47197610701076 -0.5 L 84.01723805350538 -0.5 Z"/><text text-anchor="middle" pointer-events="none" font-size="8px" fill="#000000" x="61.23598805350538" y="3" transform="rotate(180 61.23598805350538 0)" font-family="sans-serif">ACTED_IN</text></g><g class="relationship" transform="translate(259.3660957597947 118.3705326743674) rotate(536.8474942776809)"><path class="outline" fill="#A5ABB6" stroke="none" d="M 25 0.5 L 38.833482448361565 0.5 L 38.833482448361565 -0.5 L 25 -0.5 Z M 84.39598244836156 0.5 L 98.22946489672313 0.5 L 98.22946489672313 3.5 L 105.22946489672313 0 L 98.22946489672313 -3.5 L 98.22946489672313 -0.5 L 84.39598244836156 -0.5 Z"/><text text-anchor="middle" pointer-events="none" font-size="8px" fill="#000000" x="61.614732448361565" y="3" transform="rotate(180 61.614732448361565 0)" font-family="sans-serif">ACTED_IN</text></g><g class="relationship" transform="translate(259.3660957597947 118.3705326743674) rotate(202.50606384526316)"><path class="outline" fill="#A5ABB6" stroke="none" d="M 25 0.5 L 27.389445719539545 0.5 L 27.389445719539545 -0.5 L 25 -0.5 Z M 62.725383219539545 0.5 L 65.11482893907909 0.5 L 65.11482893907909 3.5 L 72.11482893907909 0 L 65.11482893907909 -3.5 L 65.11482893907909 -0.5 L 62.725383219539545 -0.5 Z"/><text text-anchor="middle" pointer-events="none" font-size="8px" fill="#000000" x="45.057414469539545" y="3" transform="rotate(180 45.057414469539545 0)" font-family="sans-serif">ACTE…</text></g><g class="relationship" transform="translate(207.74802628553175 3.928638992476384) rotate(482.8153353096259)"><path class="outline" fill="#A5ABB6" stroke="none" d="M 25 0.5 L 46.0656025838764 0.5 L 46.0656025838764 -0.5 L 25 -0.5 Z M 91.6281025838764 0.5 L 112.6937051677528 0.5 L 112.6937051677528 3.5 L 119.6937051677528 0 L 112.6937051677528 -3.5 L 112.6937051677528 -0.5 L 91.6281025838764 -0.5 Z"/><text text-anchor="middle" pointer-events="none" font-size="8px" fill="#000000" x="68.8468525838764" y="3" transform="rotate(180 68.8468525838764 0)" font-family="sans-serif">ACTED_IN</text></g><g class="relationship" transform="translate(207.74802628553175 3.928638992476384) rotate(476.24758952757725)"><path class="outline" fill="#A5ABB6" stroke="none" d="M 25 0.5 L 27.018901520096676 0.5 L 27.018901520096676 -0.5 L 25 -0.5 Z M 52.13218277009668 0.5 L 54.15108429019335 0.5 L 54.15108429019335 3.5 L 61.15108429019335 0 L 54.15108429019335 -3.5 L 54.15108429019335 -0.5 L 52.13218277009668 -0.5 Z"/><text text-anchor="middle" pointer-events="none" font-size="8px" fill="#000000" x="39.57554214509668" y="3" transform="rotate(180 39.57554214509668 0)" font-family="sans-serif">AC…</text></g><g class="relationship" transform="translate(51.62023109852025 51.477061981097876) rotate(281.4521928687082)"><path class="outline" fill="#A5ABB6" stroke="none" d="M 25 0.5 L 33.30484788238251 0.5 L 33.30484788238251 -0.5 L 25 -0.5 Z M 78.86734788238252 0.5 L 87.17219576476502 0.5 L 87.17219576476502 3.5 L 94.17219576476502 0 L 87.17219576476502 -3.5 L 87.17219576476502 -0.5 L 78.86734788238252 -0.5 Z"/><text text-anchor="middle" pointer-events="none" font-size="8px" fill="#000000" x="56.08609788238251" y="3" font-family="sans-serif">ACTED_IN</text></g><g class="relationship" transform="translate(51.62023109852025 51.477061981097876) rotate(231.30478248492273)"><path class="outline" fill="#A5ABB6" stroke="none" d="M 25 0.5 L 33.19429859194103 0.5 L 33.19429859194103 -0.5 L 25 -0.5 Z M 78.75679859194102 0.5 L 86.95109718388206 0.5 L 86.95109718388206 3.5 L 93.95109718388206 0 L 86.95109718388206 -3.5 L 86.95109718388206 -0.5 L 78.75679859194102 -0.5 Z"/><text text-anchor="middle" pointer-events="none" font-size="8px" fill="#000000" x="55.97554859194103" y="3" transform="rotate(180 55.97554859194103 0)" font-family="sans-serif">ACTED_IN</text></g><g class="relationship" transform="translate(51.62023109852025 51.477061981097876) rotate(494.01196900615366)"><path class="outline" fill="#A5ABB6" stroke="none" d="M 25 0.5 L 34.28246545363011 0.5 L 34.28246545363011 -0.5 L 25 -0.5 Z M 79.84496545363011 0.5 L 89.12743090726022 0.5 L 89.12743090726022 3.5 L 96.12743090726022 0 L 89.12743090726022 -3.5 L 89.12743090726022 -0.5 L 79.84496545363011 -0.5 Z"/><text text-anchor="middle" pointer-events="none" font-size="8px" fill="#000000" x="57.06371545363011" y="3" transform="rotate(180 57.06371545363011 0)" font-family="sans-serif">ACTED_IN</text></g><g class="relationship" transform="translate(51.62023109852025 51.477061981097876) rotate(181.45756889140068)"><path class="outline" fill="#A5ABB6" stroke="none" d="M 25 0.5 L 33.779756748747666 0.5 L 33.779756748747666 -0.5 L 25 -0.5 Z M 79.34225674874767 0.5 L 88.12201349749533 0.5 L 88.12201349749533 3.5 L 95.12201349749533 0 L 88.12201349749533 -3.5 L 88.12201349749533 -0.5 L 79.34225674874767 -0.5 Z"/><text text-anchor="middle" pointer-events="none" font-size="8px" fill="#000000" x="56.561006748747666" y="3" transform="rotate(180 56.561006748747666 0)" font-family="sans-serif">ACTED_IN</text></g><g class="relationship" transform="translate(51.62023109852025 51.477061981097876) rotate(403.61922779601014)"><path class="outline" fill="#A5ABB6" stroke="none" d="M 25 0.5 L 27.39269725952976 0.5 L 27.39269725952976 -0.5 L 25 -0.5 Z M 72.95519725952977 0.5 L 75.34789451905952 0.5 L 75.34789451905952 3.5 L 82.34789451905952 0 L 75.34789451905952 -3.5 L 75.34789451905952 -0.5 L 72.95519725952977 -0.5 Z"/><text text-anchor="middle" pointer-events="none" font-size="8px" fill="#000000" x="50.17394725952976" y="3" font-family="sans-serif">ACTED_IN</text></g><g class="relationship" transform="translate(51.62023109852025 51.477061981097876) rotate(374.1334693534849)"><path class="outline" fill="#A5ABB6" stroke="none" d="M 25 0.5 L 34.57458172064341 0.5 L 34.57458172064341 -0.5 L 25 -0.5 Z M 80.13708172064341 0.5 L 89.71166344128682 0.5 L 89.71166344128682 3.5 L 96.71166344128682 0 L 89.71166344128682 -3.5 L 89.71166344128682 -0.5 L 80.13708172064341 -0.5 Z"/><text text-anchor="middle" pointer-events="none" font-size="8px" fill="#000000" x="57.35583172064341" y="3" font-family="sans-serif">ACTED_IN</text></g></g><g class="layer nodes"><g class="node" transform="translate(180.06452215286927,210.2490420463758)"><circle class="outline" cx="0" cy="0" r="25" fill="#F79767" stroke="#f36924" stroke-width="2px"/><text text-anchor="middle" pointer-events="none" font-family="sans-serif" dy="1.5625" font-size="25" fill="#FFFFFF"/><text text-anchor="middle" pointer-events="none" font-family="sans-serif" dy="1.5625" font-size="25" fill="#FFFFFF"/><text text-anchor="middle" pointer-events="none" x="0" y="0" font-size="10px" fill="#FFFFFF" font-family="sans-serif"> Hugo</text><text text-anchor="middle" pointer-events="none" x="0" y="10" font-size="10px" fill="#FFFFFF" font-family="sans-serif"> Weaving</text></g><g class="node" transform="translate(121.10158509171647,310.9056819608876)"><circle class="outline" cx="0" cy="0" r="25" fill="#57C7E3" stroke="#23b3d7" stroke-width="2px"/><text text-anchor="middle" pointer-events="none" font-family="sans-serif" dy="1.5625" font-size="25" fill="#2A2C34"/><text text-anchor="middle" pointer-events="none" font-family="sans-serif" dy="1.5625" font-size="25" fill="#2A2C34"/><text text-anchor="middle" pointer-events="none" x="0" y="0" font-size="10px" fill="#2A2C34" font-family="sans-serif"> Cloud</text><text text-anchor="middle" pointer-events="none" x="0" y="10" font-size="10px" fill="#2A2C34" font-family="sans-serif"> Atlas</text></g><g class="node" transform="translate(256.8721597155737,290.2922671820312)"><circle class="outline" cx="0" cy="0" r="25" fill="#57C7E3" stroke="#23b3d7" stroke-width="2px"/><text text-anchor="middle" pointer-events="none" font-family="sans-serif" dy="1.5625" font-size="25" fill="#2A2C34"/><text text-anchor="middle" pointer-events="none" font-family="sans-serif" dy="1.5625" font-size="25" fill="#2A2C34"/><text text-anchor="middle" pointer-events="none" x="0" y="0" font-size="10px" fill="#2A2C34" font-family="sans-serif"> V for</text><text text-anchor="middle" pointer-events="none" x="0" y="10" font-size="10px" fill="#2A2C34" font-family="sans-serif"> Vendetta</text></g><g class="node" transform="translate(129.33370797784062,125.53235192720821)"><circle class="outline" cx="0" cy="0" r="25" fill="#57C7E3" stroke="#23b3d7" stroke-width="2px"/><text text-anchor="middle" pointer-events="none" font-family="sans-serif" dy="1.5625" font-size="25" fill="#2A2C34"/><text text-anchor="middle" pointer-events="none" font-family="sans-serif" dy="1.5625" font-size="25" fill="#2A2C34"/><text text-anchor="middle" pointer-events="none" font-family="sans-serif" dy="1.5625" font-size="25" fill="#2A2C34"/><text text-anchor="middle" pointer-events="none" x="0" y="-5" font-size="10px" fill="#2A2C34" font-family="sans-serif"> The</text><text text-anchor="middle" pointer-events="none" x="0" y="5" font-size="10px" fill="#2A2C34" font-family="sans-serif"> Matrix</text><text text-anchor="middle" pointer-events="none" x="0" y="15" font-size="10px" fill="#2A2C34" font-family="sans-serif"> Revol…</text></g><g class="node" transform="translate(169.6476267443035,81.19680112394404)"><circle class="outline" cx="0" cy="0" r="25" fill="#57C7E3" stroke="#23b3d7" stroke-width="2px"/><text text-anchor="middle" pointer-events="none" font-family="sans-serif" dy="1.5625" font-size="25" fill="#2A2C34"/><text text-anchor="middle" pointer-events="none" font-family="sans-serif" dy="1.5625" font-size="25" fill="#2A2C34"/><text text-anchor="middle" pointer-events="none" font-family="sans-serif" dy="1.5625" font-size="25" fill="#2A2C34"/><text text-anchor="middle" pointer-events="none" x="0" y="-5" font-size="10px" fill="#2A2C34" font-family="sans-serif"> The</text><text text-anchor="middle" pointer-events="none" x="0" y="5" font-size="10px" fill="#2A2C34" font-family="sans-serif"> Matrix</text><text text-anchor="middle" pointer-events="none" x="0" y="15" font-size="10px" fill="#2A2C34" font-family="sans-serif"> Reloa…</text></g><g class="node" transform="translate(259.3660957597947,118.3705326743674)"><circle class="outline" cx="0" cy="0" r="25" fill="#F79767" stroke="#f36924" stroke-width="2px"/><text text-anchor="middle" pointer-events="none" font-family="sans-serif" dy="1.5625" font-size="25" fill="#FFFFFF"/><text text-anchor="middle" pointer-events="none" font-family="sans-serif" dy="1.5625" font-size="25" fill="#FFFFFF"/><text text-anchor="middle" pointer-events="none" x="0" y="0" font-size="10px" fill="#FFFFFF" font-family="sans-serif"> Laurence</text><text text-anchor="middle" pointer-events="none" x="0" y="10" font-size="10px" fill="#FFFFFF" font-family="sans-serif"> Fishbur…</text></g><g class="node" transform="translate(207.74802628553175,3.928638992476384)"><circle class="outline" cx="0" cy="0" r="25" fill="#F79767" stroke="#f36924" stroke-width="2px"/><text text-anchor="middle" pointer-events="none" font-family="sans-serif" dy="1.5625" font-size="25" fill="#FFFFFF"/><text text-anchor="middle" pointer-events="none" x="0" y="5" font-size="10px" fill="#FFFFFF" font-family="sans-serif"> Carrie-A…</text></g><g class="node" transform="translate(51.62023109852025,51.477061981097876)"><circle class="outline" cx="0" cy="0" r="25" fill="#F79767" stroke="#f36924" stroke-width="2px"/><text text-anchor="middle" pointer-events="none" font-family="sans-serif" dy="1.5625" font-size="25" fill="#FFFFFF"/><text text-anchor="middle" pointer-events="none" font-family="sans-serif" dy="1.5625" font-size="25" fill="#FFFFFF"/><text text-anchor="middle" pointer-events="none" x="0" y="0" font-size="10px" fill="#FFFFFF" font-family="sans-serif"> Keanu</text><text text-anchor="middle" pointer-events="none" x="0" y="10" font-size="10px" fill="#FFFFFF" font-family="sans-serif"> Reeves</text></g><g class="node" transform="translate(75.28189725347951,-65.32250051023483)"><circle class="outline" cx="0" cy="0" r="25" fill="#57C7E3" stroke="#23b3d7" stroke-width="2px"/><text text-anchor="middle" pointer-events="none" font-family="sans-serif" dy="1.5625" font-size="25" fill="#2A2C34"/><text text-anchor="middle" pointer-events="none" x="0" y="5" font-size="10px" fill="#2A2C34" font-family="sans-serif"> Somethi…</text></g><g class="node" transform="translate(-22.745319834687354,-41.36219887146309)"><circle class="outline" cx="0" cy="0" r="25" fill="#57C7E3" stroke="#23b3d7" stroke-width="2px"/><text text-anchor="middle" pointer-events="none" font-family="sans-serif" dy="1.5625" font-size="25" fill="#2A2C34"/><text text-anchor="middle" pointer-events="none" font-family="sans-serif" dy="1.5625" font-size="25" fill="#2A2C34"/><text text-anchor="middle" pointer-events="none" x="0" y="0" font-size="10px" fill="#2A2C34" font-family="sans-serif"> The</text><text text-anchor="middle" pointer-events="none" x="0" y="10" font-size="10px" fill="#2A2C34" font-family="sans-serif"> Replac…</text></g><g class="node" transform="translate(-32.54015254161375,138.5912648629389)"><circle class="outline" cx="0" cy="0" r="25" fill="#57C7E3" stroke="#23b3d7" stroke-width="2px"/><text text-anchor="middle" pointer-events="none" font-family="sans-serif" dy="1.5625" font-size="25" fill="#2A2C34"/><text text-anchor="middle" pointer-events="none" font-family="sans-serif" dy="1.5625" font-size="25" fill="#2A2C34"/><text text-anchor="middle" pointer-events="none" x="0" y="0" font-size="10px" fill="#2A2C34" font-family="sans-serif"> Johnny</text><text text-anchor="middle" pointer-events="none" x="0" y="10" font-size="10px" fill="#2A2C34" font-family="sans-serif"> Mnemo…</text></g><g class="node" transform="translate(-68.46291530213327,48.4215624782895)"><circle class="outline" cx="0" cy="0" r="25" fill="#57C7E3" stroke="#23b3d7" stroke-width="2px"/><text text-anchor="middle" pointer-events="none" font-family="sans-serif" dy="1.5625" font-size="25" fill="#2A2C34"/><text text-anchor="middle" pointer-events="none" font-family="sans-serif" dy="1.5625" font-size="25" fill="#2A2C34"/><text text-anchor="middle" pointer-events="none" font-family="sans-serif" dy="1.5625" font-size="25" fill="#2A2C34"/><text text-anchor="middle" pointer-events="none" x="0" y="-5" font-size="10px" fill="#2A2C34" font-family="sans-serif"> The</text><text text-anchor="middle" pointer-events="none" x="0" y="5" font-size="10px" fill="#2A2C34" font-family="sans-serif"> Devil's</text><text text-anchor="middle" pointer-events="none" x="0" y="15" font-size="10px" fill="#2A2C34" font-family="sans-serif"> Advoc…</text></g></g></svg>