<svg xmlns="http://www.w3.org/2000/svg" width="339.0137634277344" height="381.38531494140625" viewBox="-50.87904739379883 -105.52320861816406 339.0137634277344 381.38531494140625"><title>Neo4j Graph Visualization</title><desc>Created using Neo4j (http://www.neo4j.com/)</desc><g class="layer relationships"><g class="relationship" transform="translate(259.13470931922603 246.86212160532835) rotate(211.4552247778446)"><path class="outline" fill="#A5ABB6" stroke="none" d="M 25 0.5 L 27.545793074924568 0.5 L 27.545793074924568 -0.5 L 25 -0.5 Z M 74.43641807492457 0.5 L 76.98221114984914 0.5 L 76.98221114984914 3.5 L 83.98221114984914 0 L 76.98221114984914 -3.5 L 76.98221114984914 -0.5 L 74.43641807492457 -0.5 Z"/><text text-anchor="middle" pointer-events="none" font-size="8px" fill="#000000" x="50.99110557492457" y="3" transform="rotate(180 50.99110557492457 0)" font-family="sans-serif">DIRECTED</text></g><g class="relationship" transform="translate(61.572715997415 122.48873069652913) rotate(304.34224081569295)"><path class="outline" fill="#A5ABB6" stroke="none" d="M 24.018736134675446,6.953439040707552 L 24.277555179777966,5.987513214418485 A 155.43311374494513 155.43311374494513 0 0 0 36.81878235584085,8.797826023700736 L 36.640648995235665,9.781832378273464 A 156.43311374494513 156.43311374494513 0 0 1 24.018736134675446,6.953439040707552 Z M 88.34517769691222,10.456739455297708 L 88.19278942137598,9.468418751538508 A 155.43311374494513 155.43311374494513 0 0 0 100.80309803961234,6.986412764344201 L 100.1025428250533,4.069355618631395 L 107.72632391536872,5.83796012132526 L 101.73717165902438,10.875822291961276 L 101.03661644446535,7.95876514624847 A 156.43311374494513 156.43311374494513 0 0 1 88.34517769691222,10.456739455297708"/><text text-anchor="middle" pointer-events="none" font-size="8px" fill="#000000" x="62.47135998657871" y="14.770485515332126" font-family="sans-serif">PRODUCED</text></g><g class="relationship" transform="translate(61.572715997415 122.48873069652913) rotate(304.34224081569295)"><path class="outline" fill="#A5ABB6" stroke="none" d="M 24.018736134675446,-6.953439040707552 L 24.277555179777966,-5.987513214418485 A 155.43311374494513 155.43311374494513 0 0 1 44.702442244803564,-10.01695412871814 L 44.575029478407785,-11.008803909158388 A 156.43311374494513 156.43311374494513 0 0 0 24.018736134675446,-6.953439040707552 Z M 80.381474313243,-11.476190879486296 L 80.27999407880512,-10.481353323893217 A 155.43311374494513 155.43311374494513 0 0 1 100.80309803961234,-6.986412764344201 L 100.1025428250533,-4.069355618631395 L 107.72632391536872,-5.83796012132526 L 101.73717165902438,-10.875822291961276 L 101.03661644446535,-7.95876514624847 A 156.43311374494513 156.43311374494513 0 0 0 80.381474313243,-11.476190879486296"/><text text-anchor="middle" pointer-events="none" font-size="8px" fill="#000000" x="62.47135998657872" y="-8.770485515332126" font-family="sans-serif">WROTE</text></g><g class="relationship" transform="translate(61.572715997415 122.48873069652913) rotate(392.8372004011116)"><path class="outline" fill="#A5ABB6" stroke="none" d="M 25 0.5 L 35.2976536373716 0.5 L 35.2976536373716 -0.5 L 25 -0.5 Z M 82.18827863737161 0.5 L 92.4859322747432 0.5 L 92.4859322747432 3.5 L 99.4859322747432 0 L 92.4859322747432 -3.5 L 92.4859322747432 -0.5 L 82.18827863737161 -0.5 Z"/><text text-anchor="middle" pointer-events="none" font-size="8px" fill="#000000" x="58.7429661373716" y="3" font-family="sans-serif">DIRECTED</text></g><g class="relationship" transform="translate(61.572715997415 122.48873069652913) rotate(254.39887388046134)"><path class="outline" fill="#A5ABB6" stroke="none" d="M 25 0.5 L 26.30180730387942 0.5 L 26.30180730387942 -0.5 L 25 -0.5 Z M 73.19243230387943 0.5 L 74.49423960775884 0.5 L 74.49423960775884 3.5 L 81.49423960775884 0 L 74.49423960775884 -3.5 L 74.49423960775884 -0.5 L 73.19243230387943 -0.5 Z"/><text text-anchor="middle" pointer-events="none" font-size="8px" fill="#000000" x="49.74711980387942" y="3" transform="rotate(180 49.74711980387942 0)" font-family="sans-serif">DIRECTED</text></g><g class="relationship" transform="translate(61.572715997415 122.48873069652913) rotate(191.48275347674905)"><path class="outline" fill="#A5ABB6" stroke="none" d="M 25 0.5 L 25.189424321515702 0.5 L 25.189424321515702 -0.5 L 25 -0.5 Z M 52.9667680715157 0.5 L 53.156192393031404 0.5 L 53.156192393031404 3.5 L 60.156192393031404 0 L 53.156192393031404 -3.5 L 53.156192393031404 -0.5 L 52.9667680715157 -0.5 Z"/><text text-anchor="middle" pointer-events="none" font-size="8px" fill="#000000" x="39.0780961965157" y="3" transform="rotate(180 39.0780961965157 0)" font-family="sans-serif">DIR…</text></g><g class="relationship" transform="translate(61.572715997415 122.48873069652913) rotate(452.0723996000778)"><path class="outline" fill="#A5ABB6" stroke="none" d="M 25 0.5 L 27.845262223477185 0.5 L 27.845262223477185 -0.5 L 25 -0.5 Z M 60.958543473477185 0.5 L 63.80380569695437 0.5 L 63.80380569695437 3.5 L 70.80380569695437 0 L 63.80380569695437 -3.5 L 63.80380569695437 -0.5 L 60.958543473477185 -0.5 Z"/><text text-anchor="middle" pointer-events="none" font-size="8px" fill="#000000" x="44.401902848477185" y="3" transform="rotate(180 44.401902848477185 0)" font-family="sans-serif">DIRE…</text></g><g class="relationship" transform="translate(118.62252784174572 104.31399036599413) rotate(280.86469256286085)"><path class="outline" fill="#A5ABB6" stroke="none" d="M 24.018736134675446,6.953439040707552 L 24.277555179777966,5.987513214418485 A 76.56694575906788 76.56694575906788 0 0 0 24.482032250455795,6.041999943135323 L 24.22588377120451,7.00863739149807 A 77.56694575906788 77.56694575906788 0 0 1 24.018736134675446,6.953439040707552 Z M 61.21388397415826,7.683730289538289 L 60.99317984768953,6.708389483173832 A 76.56694575906788 76.56694575906788 0 0 0 61.19950901707204,6.661400655765896 L 60.529312372295074,3.7372193246358134 L 68.13429823050505,5.584972039808002 L 62.09310454344132,10.560309097272674 L 61.422907898664356,7.63612776614259 A 77.56694575906788 77.56694575906788 0 0 1 61.21388397415826,7.683730289538289"/><text text-anchor="middle" pointer-events="none" font-size="8px" fill="#000000" x="42.688172473924354" y="12.083635422465079" font-family="sans-serif">PROD…</text></g><g class="relationship" transform="translate(118.62252784174572 104.31399036599413) rotate(280.86469256286085)"><path class="outline" fill="#A5ABB6" stroke="none" d="M 24.018736134675446,-6.953439040707552 L 24.277555179777966,-5.987513214418485 A 76.56694575906788 76.56694575906788 0 0 1 25.126135352435053,-6.209687648208018 L 24.87839915991656,-7.178515176159436 A 77.56694575906788 77.56694575906788 0 0 0 24.018736134675446,-6.953439040707552 Z M 60.555604134571595,-7.8296838678474785 L 60.34338661065175,-6.852461414901725 A 76.56694575906788 76.56694575906788 0 0 1 61.19950901707204,-6.661400655765896 L 60.529312372295074,-3.7372193246358134 L 68.13429823050505,-5.584972039808002 L 62.09310454344132,-10.560309097272674 L 61.422907898664356,-7.63612776614259 A 77.56694575906788 77.56694575906788 0 0 0 60.555604134571595,-7.8296838678474785"/><text text-anchor="middle" pointer-events="none" font-size="8px" fill="#000000" x="42.688172473924354" y="-6.083635422465079" font-family="sans-serif">WROTE</text></g><g class="relationship" transform="translate(118.62252784174572 104.31399036599413) rotate(420.97280969296133)"><path class="outline" fill="#A5ABB6" stroke="none" d="M 25 0.5 L 26.047563540056075 0.5 L 26.047563540056075 -0.5 L 25 -0.5 Z M 64.93818854005607 0.5 L 65.98575208011215 0.5 L 65.98575208011215 3.5 L 72.98575208011215 0 L 65.98575208011215 -3.5 L 65.98575208011215 -0.5 L 64.93818854005607 -0.5 Z"/><text text-anchor="middle" pointer-events="none" font-size="8px" fill="#000000" x="45.492876040056075" y="3" font-family="sans-serif">DIREC…</text></g><g class="relationship" transform="translate(118.62252784174572 104.31399036599413) rotate(224.5640139104533)"><path class="outline" fill="#A5ABB6" stroke="none" d="M 25 0.5 L 33.190981786024174 0.5 L 33.190981786024174 -0.5 L 25 -0.5 Z M 80.08160678602417 0.5 L 88.27258857204835 0.5 L 88.27258857204835 3.5 L 95.27258857204835 0 L 88.27258857204835 -3.5 L 88.27258857204835 -0.5 L 80.08160678602417 -0.5 Z"/><text text-anchor="middle" pointer-events="none" font-size="8px" fill="#000000" x="56.636294286024174" y="3" transform="rotate(180 56.636294286024174 0)" font-family="sans-serif">DIRECTED</text></g><g class="relationship" transform="translate(118.62252784174572 104.31399036599413) rotate(539.5015061110081)"><path class="outline" fill="#A5ABB6" stroke="none" d="M 25 0.5 L 43.30813398932794 0.5 L 43.30813398932794 -0.5 L 25 -0.5 Z M 90.19875898932794 0.5 L 108.50689297865588 0.5 L 108.50689297865588 3.5 L 115.50689297865588 0 L 108.50689297865588 -3.5 L 108.50689297865588 -0.5 L 90.19875898932794 -0.5 Z"/><text text-anchor="middle" pointer-events="none" font-size="8px" fill="#000000" x="66.75344648932794" y="3" transform="rotate(180 66.75344648932794 0)" font-family="sans-serif">DIRECTED</text></g><g class="relationship" transform="translate(118.62252784174572 104.31399036599413) rotate(477.97809581828426)"><path class="outline" fill="#A5ABB6" stroke="none" d="M 25 0.5 L 37.55044103302352 0.5 L 37.55044103302352 -0.5 L 25 -0.5 Z M 84.44106603302352 0.5 L 96.99150706604703 0.5 L 96.99150706604703 3.5 L 103.99150706604703 0 L 96.99150706604703 -3.5 L 96.99150706604703 -0.5 L 84.44106603302352 -0.5 Z"/><text text-anchor="middle" pointer-events="none" font-size="8px" fill="#000000" x="60.99575353302352" y="3" transform="rotate(180 60.99575353302352 0)" font-family="sans-serif">DIRECTED</text></g><g class="relationship" transform="translate(199.41318663681434 -76.5232105112917) rotate(485.1454985867056)"><path class="outline" fill="#A5ABB6" stroke="none" d="M 25 0.5 L 28.083190646993458 0.5 L 28.083190646993458 -0.5 L 25 -0.5 Z M 74.97381564699346 0.5 L 78.05700629398692 0.5 L 78.05700629398692 3.5 L 85.05700629398692 0 L 78.05700629398692 -3.5 L 78.05700629398692 -0.5 L 74.97381564699346 -0.5 Z"/><text text-anchor="middle" pointer-events="none" font-size="8px" fill="#000000" x="51.52850314699346" y="3" transform="rotate(180 51.52850314699346 0)" font-family="sans-serif">DIRECTED</text></g></g><g class="layer nodes"><g class="node" transform="translate(259.13470931922603,246.86212160532835)"><circle class="outline" cx="0" cy="0" r="25" fill="#F79767" stroke="#f36924" stroke-width="2px"/><text text-anchor="middle" pointer-events="none" font-family="sans-serif" dy="1.5625" font-size="25" fill="#FFFFFF"/><text text-anchor="middle" pointer-events="none" font-family="sans-serif" dy="1.5625" font-size="25" fill="#FFFFFF"/><text text-anchor="middle" pointer-events="none" x="0" y="0" font-size="10px" fill="#FFFFFF" font-family="sans-serif"> Tom</text><text text-anchor="middle" pointer-events="none" x="0" y="10" font-size="10px" fill="#FFFFFF" font-family="sans-serif"> Tykwer</text></g><g class="node" transform="translate(166.1676276993583,189.99170678184436)"><circle class="outline" cx="0" cy="0" r="25" fill="#57C7E3" stroke="#23b3d7" stroke-width="2px"/><text text-anchor="middle" pointer-events="none" font-family="sans-serif" dy="1.5625" font-size="25" fill="#2A2C34"/><text text-anchor="middle" pointer-events="none" font-family="sans-serif" dy="1.5625" font-size="25" fill="#2A2C34"/><text text-anchor="middle" pointer-events="none" x="0" y="0" font-size="10px" fill="#2A2C34" font-family="sans-serif"> Cloud</text><text text-anchor="middle" pointer-events="none" x="0" y="10" font-size="10px" fill="#2A2C34" font-family="sans-serif"> Atlas</text></g><g class="node" transform="translate(61.572715997415,122.48873069652913)"><circle class="outline" cx="0" cy="0" r="25" fill="#F79767" stroke="#f36924" stroke-width="2px"/><text text-anchor="middle" pointer-events="none" font-family="sans-serif" dy="1.5625" font-size="25" fill="#FFFFFF"/><text text-anchor="middle" pointer-events="none" font-family="sans-serif" dy="1.5625" font-size="25" fill="#FFFFFF"/><text text-anchor="middle" pointer-events="none" x="0" y="0" font-size="10px" fill="#FFFFFF" font-family="sans-serif"> Lana</text><text text-anchor="middle" pointer-events="none" x="0" y="10" font-size="10px" fill="#FFFFFF" font-family="sans-serif"> Wacho…</text></g><g class="node" transform="translate(118.62252784174572,104.31399036599413)"><circle class="outline" cx="0" cy="0" r="25" fill="#F79767" stroke="#f36924" stroke-width="2px"/><text text-anchor="middle" pointer-events="none" font-family="sans-serif" dy="1.5625" font-size="25" fill="#FFFFFF"/><text text-anchor="middle" pointer-events="none" font-family="sans-serif" dy="1.5625" font-size="25" fill="#FFFFFF"/><text text-anchor="middle" pointer-events="none" x="0" y="0" font-size="10px" fill="#FFFFFF" font-family="sans-serif"> Lilly</text><text text-anchor="middle" pointer-events="none" x="0" y="10" font-size="10px" fill="#FFFFFF" font-family="sans-serif"> Wacho…</text></g><g class="node" transform="translate(199.41318663681434,-76.5232105112917)"><circle class="outline" cx="0" cy="0" r="25" fill="#F79767" stroke="#f36924" stroke-width="2px"/><text text-anchor="middle" pointer-events="none" font-family="sans-serif" dy="1.5625" font-size="25" fill="#FFFFFF"/><text text-anchor="middle" pointer-events="none" font-family="sans-serif" dy="1.5625" font-size="25" fill="#FFFFFF"/><text text-anchor="middle" pointer-events="none" x="0" y="0" font-size="10px" fill="#FFFFFF" font-family="sans-serif"> James</text><text text-anchor="middle" pointer-events="none" x="0" y="10" font-size="10px" fill="#FFFFFF" font-family="sans-serif"> Marshall</text></g><g class="node" transform="translate(136.05834670879383,13.469616381131084)"><circle class="outline" cx="0" cy="0" r="25" fill="#57C7E3" stroke="#23b3d7" stroke-width="2px"/><text text-anchor="middle" pointer-events="none" font-family="sans-serif" dy="1.5625" font-size="25" fill="#2A2C34"/><text text-anchor="middle" pointer-events="none" font-family="sans-serif" dy="1.5625" font-size="25" fill="#2A2C34"/><text text-anchor="middle" pointer-events="none" x="0" y="0" font-size="10px" fill="#2A2C34" font-family="sans-serif"> V for</text><text text-anchor="middle" pointer-events="none" x="0" y="10" font-size="10px" fill="#2A2C34" font-family="sans-serif"> Vendetta</text></g><g class="node" transform="translate(32.93228820478184,19.918028420051975)"><circle class="outline" cx="0" cy="0" r="25" fill="#57C7E3" stroke="#23b3d7" stroke-width="2px"/><text text-anchor="middle" pointer-events="none" font-family="sans-serif" dy="1.5625" font-size="25" fill="#2A2C34"/><text text-anchor="middle" pointer-events="none" font-family="sans-serif" dy="1.5625" font-size="25" fill="#2A2C34"/><text text-anchor="middle" pointer-events="none" font-family="sans-serif" dy="1.5625" font-size="25" fill="#2A2C34"/><text text-anchor="middle" pointer-events="none" x="0" y="-5" font-size="10px" fill="#2A2C34" font-family="sans-serif"> The</text><text text-anchor="middle" pointer-events="none" x="0" y="5" font-size="10px" fill="#2A2C34" font-family="sans-serif"> Matrix</text><text text-anchor="middle" pointer-events="none" x="0" y="15" font-size="10px" fill="#2A2C34" font-family="sans-serif"> Revol…</text></g><g class="node" transform="translate(-21.87904724742495,105.53643544762082)"><circle class="outline" cx="0" cy="0" r="25" fill="#57C7E3" stroke="#23b3d7" stroke-width="2px"/><text text-anchor="middle" pointer-events="none" font-family="sans-serif" dy="1.5625" font-size="25" fill="#2A2C34"/><text text-anchor="middle" pointer-events="none" font-family="sans-serif" dy="1.5625" font-size="25" fill="#2A2C34"/><text text-anchor="middle" pointer-events="none" font-family="sans-serif" dy="1.5625" font-size="25" fill="#2A2C34"/><text text-anchor="middle" pointer-events="none" x="0" y="-5" font-size="10px" fill="#2A2C34" font-family="sans-serif"> The</text><text text-anchor="middle" pointer-events="none" x="0" y="5" font-size="10px" fill="#2A2C34" font-family="sans-serif"> Matrix</text><text text-anchor="middle" pointer-events="none" x="0" y="15" font-size="10px" fill="#2A2C34" font-family="sans-serif"> Reloa…</text></g><g class="node" transform="translate(58.10822906275468,218.22987397516016)"><circle class="outline" cx="0" cy="0" r="25" fill="#57C7E3" stroke="#23b3d7" stroke-width="2px"/><text text-anchor="middle" pointer-events="none" font-family="sans-serif" dy="1.5625" font-size="25" fill="#2A2C34"/><text text-anchor="middle" pointer-events="none" font-family="sans-serif" dy="1.5625" font-size="25" fill="#2A2C34"/><text text-anchor="middle" pointer-events="none" x="0" y="0" font-size="10px" fill="#2A2C34" font-family="sans-serif"> The</text><text text-anchor="middle" pointer-events="none" x="0" y="10" font-size="10px" fill="#2A2C34" font-family="sans-serif"> Matrix</text></g></g></svg>