<svg xmlns="http://www.w3.org/2000/svg" width="163.52001953125" height="242.5450897216797" viewBox="-0.345489501953125 -20.12955093383789 163.52001953125 242.5450897216797"><title>Neo4j Graph Visualization</title><desc>Created using Neo4j (http://www.neo4j.com/)</desc><g class="layer relationships"><g class="relationship" transform="translate(134.1745119298917 8.870448364333239) rotate(520.8793538101328)"><path class="outline" fill="#A5ABB6" stroke="none" d="M 21.40063509461097,12.933012701892217 L 21.90063509461097,12.06698729810778 A 59.92173990929988 59.92173990929988 0 0 0 23.462610403279157,12.937977438940727 L 22.98867732508471,13.818538304181246 A 60.92173990929988 60.92173990929988 0 0 1 21.40063509461097,12.933012701892217 Z M 77.37406576206912,15.495635565448396 L 76.95528979226276,14.58754598445281 A 59.92173990929988 59.92173990929988 0 0 0 78.56796413475797,13.814453392731224 L 77.23089719748674,11.128889763759435 L 85.05712375857068,11.142224477260301 L 80.35072005111962,17.39520489802694 L 79.01365311384839,14.709641269055151 A 60.92173990929988 60.92173990929988 0 0 1 77.37406576206912,15.495635565448396"/><text text-anchor="middle" pointer-events="none" font-size="8px" fill="#000000" x="49.999148430613516" y="23.56627002728684" transform="rotate(180 49.999148430613516 20.56627002728684)" font-family="sans-serif">PublicTrans…</text></g><g class="relationship" transform="translate(32.664879689568025 44.06227976589874) rotate(452.15383648026733)"><path class="outline" fill="#A5ABB6" stroke="none" d="M 25 0.5 L 40.18599183196654 0.5 L 40.18599183196654 -0.5 L 25 -0.5 Z M 59.52192933196654 0.5 L 74.70792116393308 0.5 L 74.70792116393308 3.5 L 81.70792116393308 0 L 74.70792116393308 -3.5 L 74.70792116393308 -0.5 L 59.52192933196654 -0.5 Z"/><text text-anchor="middle" pointer-events="none" font-size="8px" fill="#000000" x="49.85396058196654" y="3" transform="rotate(180 49.85396058196654 0)" font-family="sans-serif">trek</text></g><g class="relationship" transform="translate(28.654509482968304 150.69481405977254) rotate(383.4331899627339)"><path class="outline" fill="#A5ABB6" stroke="none" d="M 25 0.5 L 40.54454521613236 0.5 L 40.54454521613236 -0.5 L 25 -0.5 Z M 59.88048271613236 0.5 L 75.42502793226473 0.5 L 75.42502793226473 3.5 L 82.42502793226473 0 L 75.42502793226473 -3.5 L 75.42502793226473 -0.5 L 59.88048271613236 -0.5 Z"/><text text-anchor="middle" pointer-events="none" font-size="8px" fill="#000000" x="50.21251396613236" y="3" font-family="sans-serif">trek</text></g><g class="relationship" transform="translate(134.1745119298917 8.870448364333239) rotate(520.8793538101328)"><path class="outline" fill="#A5ABB6" stroke="none" d="M 25 0.5 L 40.55044158333445 0.5 L 40.55044158333445 -0.5 L 25 -0.5 Z M 59.88637908333445 0.5 L 75.4368206666689 0.5 L 75.4368206666689 3.5 L 82.4368206666689 0 L 75.4368206666689 -3.5 L 75.4368206666689 -0.5 L 59.88637908333445 -0.5 Z"/><text text-anchor="middle" pointer-events="none" font-size="8px" fill="#000000" x="50.21841033333445" y="3" transform="rotate(180 50.21841033333445 0)" font-family="sans-serif">trek</text></g><g class="relationship" transform="translate(134.1745119298917 8.870448364333239) rotate(520.8793538101328)"><path class="outline" fill="#A5ABB6" stroke="none" d="M 21.40063509461097,-12.933012701892217 L 21.90063509461097,-12.06698729810778 A 59.92173990929988 59.92173990929988 0 0 1 39.195744786980484,-18.741091517150316 L 38.98437308313056,-19.718497268520537 A 60.92173990929988 60.92173990929988 0 0 0 21.40063509461097,-12.933012701892217 Z M 61.04523128400642,-20.398794052881307 L 60.89448499461255,-19.410221568824632 A 59.92173990929988 59.92173990929988 0 0 1 78.56796413475797,-13.814453392731224 L 77.23089719748674,-11.128889763759435 L 85.05712375857068,-11.142224477260301 L 80.35072005111962,-17.39520489802694 L 79.01365311384839,-14.709641269055151 A 60.92173990929988 60.92173990929988 0 0 0 61.04523128400642,-20.398794052881307"/><text text-anchor="middle" pointer-events="none" font-size="8px" fill="#000000" x="49.9991484306135" y="-17.566270027286834" transform="rotate(180 49.9991484306135 -20.566270027286834)" font-family="sans-serif">road</text></g></g><g class="layer nodes"><g class="node" transform="translate(134.1745119298917,8.870448364333239)"><circle class="outline" cx="0" cy="0" r="25" fill="#F79767" stroke="#f36924" stroke-width="2px"/><text text-anchor="middle" pointer-events="none" font-family="sans-serif" dy="1.5625" font-size="25" fill="#FFFFFF"/><text text-anchor="middle" pointer-events="none" x="0" y="5" font-size="10px" fill="#FFFFFF" font-family="sans-serif"> Darjeeling</text></g><g class="node" transform="translate(127.2195953089255,193.41554067308692)"><circle class="outline" cx="0" cy="0" r="25" fill="#F16667" stroke="#eb2728" stroke-width="2px"/><text text-anchor="middle" pointer-events="none" font-family="sans-serif" dy="1.5625" font-size="25" fill="#FFFFFF"/><text text-anchor="middle" pointer-events="none" x="0" y="5" font-size="10px" fill="#FFFFFF" font-family="sans-serif"> Sandak…</text></g><g class="node" transform="translate(32.664879689568025,44.06227976589874)"><circle class="outline" cx="0" cy="0" r="25" fill="#F79767" stroke="#f36924" stroke-width="2px"/><text text-anchor="middle" pointer-events="none" font-family="sans-serif" dy="1.5625" font-size="25" fill="#FFFFFF"/><text text-anchor="middle" pointer-events="none" x="0" y="5" font-size="10px" fill="#FFFFFF" font-family="sans-serif"> Rimbik</text></g><g class="node" transform="translate(28.654509482968304,150.69481405977254)"><circle class="outline" cx="0" cy="0" r="25" fill="#57C7E3" stroke="#23b3d7" stroke-width="2px"/><text text-anchor="middle" pointer-events="none" font-family="sans-serif" dy="1.5625" font-size="25" fill="#2A2C34"/><text text-anchor="middle" pointer-events="none" x="0" y="5" font-size="10px" fill="#2A2C34" font-family="sans-serif"> BhikeBh…</text></g></g></svg>