<svg xmlns="http://www.w3.org/2000/svg" width="198.69680786132812" height="211.6615447998047" viewBox="24.321773529052734 -19.836105346679688 198.69680786132812 211.6615447998047"><title>Neo4j Graph Visualization</title><desc>Created using Neo4j (http://www.neo4j.com/)</desc><g class="layer relationships"><g class="relationship" transform="translate(134.08604765192754 162.82542573778395) rotate(283.4281907572887)"><path class="outline" fill="#A5ABB6" stroke="none" d="M 5.987513214418485,24.277555179777966 L 6.953439040707552,24.018736134675446 A 45.890142002933125 45.890142002933125 0 0 0 13.795247460334672,38.61421576665322 L 12.97841266146473,39.19108742599792 A 46.890142002933125 46.890142002933125 0 0 1 5.987513214418485,24.277555179777966 Z M 85.91315321867586,43.75199870641187 L 85.17454933807562,43.077859026848145 A 45.890142002933125 45.890142002933125 0 0 0 93.7813771121819,29.448446574169477 L 91.00290686451618,28.31703016858028 L 96.88442709983433,23.15391873054766 L 97.48600410906954,30.95700178162174 L 94.70753386140382,29.825585376032546 A 46.890142002933125 46.890142002933125 0 0 1 85.91315321867586,43.75199870641187"/><text text-anchor="middle" pointer-events="none" font-size="8px" fill="#000000" x="48.38460029884012" y="61.44119580957394" font-family="sans-serif">ECONOMIC_FLIGHT</text></g><g class="relationship" transform="translate(158.77471988463736 59.41893869248694) rotate(187.30545281380864)"><path class="outline" fill="#A5ABB6" stroke="none" d="M 5.987513214418485,-24.277555179777966 L 6.953439040707552,-24.018736134675446 A 45.891795755398014 45.891795755398014 0 0 1 13.796384271212013,-38.61600227382685 L 12.979568871260959,-39.19290140054035 A 46.891795755398014 46.891795755398014 0 0 0 5.987513214418485,-24.277555179777966 Z M 85.91502146268272,-43.75372704173951 L 85.1764378548441,-43.079565151514245 A 45.891795755398014 45.891795755398014 0 0 1 93.78456768410683,-29.448491128992895 L 91.00609341378077,-28.317084602082225 L 96.88759529195274,-23.153952252717193 L 97.48920004454158,-30.957033164873785 L 94.71072577421552,-29.825626637963115 A 46.891795755398014 46.891795755398014 0 0 0 85.91502146268272,-43.75372704173951"/><text text-anchor="middle" pointer-events="none" font-size="8px" fill="#000000" x="48.38617679742037" y="-55.44242346250062" transform="rotate(180 48.38617679742037 -58.44242346250062)" font-family="sans-serif">ECONOMIC_FLIGHT</text></g><g class="relationship" transform="translate(134.08604765192754 162.82542573778395) rotate(283.4281907572887)"><path class="outline" fill="#A5ABB6" stroke="none" d="M 17.324116139070416,18.03122292025696 L 18.031222920256962,17.324116139070412 A 47.020747555785306 47.020747555785306 0 0 0 18.8017868623578,18.077221697251133 L 18.111067824500658,18.800344930691814 A 48.020747555785306 48.020747555785306 0 0 1 17.324116139070416,18.03122292025696 Z M 81.23421128320446,21.608507729699177 L 80.61043301163562,20.826906381236547 A 47.020747555785306 47.020747555785306 0 0 0 81.44482748138263,20.145200697319904 L 79.52025694543902,17.843890580847617 L 87.13531284247523,16.038087799530174 L 84.01092152930745,23.21361418594962 L 82.08635099336384,20.912304069477333 A 48.020747555785306 48.020747555785306 0 0 1 81.23421128320446,21.608507729699177"/><text text-anchor="middle" pointer-events="none" font-size="8px" fill="#000000" x="49.167943094207125" y="34.54921981459025" font-family="sans-serif">BUSINESS_FL…</text></g><g class="relationship" transform="translate(134.08604765192754 162.82542573778395) rotate(283.4281907572887)"><path class="outline" fill="#A5ABB6" stroke="none" d="M 24.018736134675446,6.953439040707552 L 24.277555179777966,5.987513214418485 A 104.3290967360599 104.3290967360599 0 0 0 26.298462000275663,6.507409040241754 L 26.059013455673213,7.478318095966216 A 105.3290967360599 105.3290967360599 0 0 1 24.018736134675446,6.953439040707552 Z M 73.21162680975425,8.233820466178656 L 73.00340595610638,7.255738631102389 A 104.3290967360599 104.3290967360599 0 0 0 75.03993120504883,6.800852978149489 L 74.3567080321766,3.8796877832229195 L 81.9698538553562,5.693526440602019 L 75.95089543554515,10.695739904718248 L 75.26767226267292,7.774574709791679 A 105.3290967360599 105.3290967360599 0 0 1 73.21162680975425,8.233820466178656"/><text text-anchor="middle" pointer-events="none" font-size="8px" fill="#000000" x="49.600504564827496" y="13.028987693996584" font-family="sans-serif">FIRST_C…</text></g><g class="relationship" transform="translate(158.77471988463736 59.41893869248694) rotate(463.4281907572887)"><path class="outline" fill="#A5ABB6" stroke="none" d="M 24.018736134675446,6.953439040707552 L 24.277555179777966,5.987513214418485 A 104.3290967360599 104.3290967360599 0 0 0 25.013400681440253,6.181808574336486 L 24.761634755023536,7.149596732093926 A 105.3290967360599 105.3290967360599 0 0 1 24.018736134675446,6.953439040707552 Z M 74.51887072188126,7.946831647280817 L 74.29823882558102,6.971474499188403 A 104.3290967360599 104.3290967360599 0 0 0 75.03993120504883,6.800852978149489 L 74.3567080321766,3.8796877832229195 L 81.9698538553562,5.693526440602019 L 75.95089543554515,10.695739904718248 L 75.26767226267292,7.774574709791679 A 105.3290967360599 105.3290967360599 0 0 1 74.51887072188126,7.946831647280817"/><text text-anchor="middle" pointer-events="none" font-size="8px" fill="#000000" x="49.600504564827496" y="13.028987693996584" transform="rotate(180 49.600504564827496 10.028987693996584)" font-family="sans-serif">ECONOM…</text></g><g class="relationship" transform="translate(158.77471988463736 59.41893869248694) rotate(187.30545281380864)"><path class="outline" fill="#A5ABB6" stroke="none" d="M 10.396609043987748,-22.74116356711926 L 11.29757791189017,-22.307279828001697 A 44.378816281219024 44.378816281219024 0 0 1 14.396687287348918,-27.729739712576336 L 13.565551498269976,-28.28580922272063 A 45.378816281219024 45.378816281219024 0 0 0 10.396609043987748,-22.74116356711926 Z M 85.84640363538028,-32.45450031803569 L 85.0847069519422,-31.80656655410652 A 44.378816281219024 44.378816281219024 0 0 1 88.78665908581097,-26.776347819357305 L 86.25131773696656,-25.17258840945825 L 92.95132126704951,-21.127844573703502 L 92.16711421760353,-28.91469369922271 L 89.63177286875911,-27.310934289323654 A 45.378816281219024 45.378816281219024 0 0 0 85.84640363538028,-32.45450031803569"/><text text-anchor="middle" pointer-events="none" font-size="8px" fill="#000000" x="48.69748448415103" y="-44.85639630839641" transform="rotate(180 48.69748448415103 -47.85639630839641)" font-family="sans-serif">ECONOMIC_FLIGHT</text></g><g class="relationship" transform="translate(158.77471988463736 59.41893869248694) rotate(187.30545281380864)"><path class="outline" fill="#A5ABB6" stroke="none" d="M 14.44320574945421,-20.411854586953456 L 15.247803529220876,-19.818034401379958 A 44.78474481604749 44.78474481604749 0 0 1 17.106831864019178,-22.16811513876011 L 16.343744387424586,-22.81441035231542 A 45.78474481604749 45.78474481604749 0 0 0 14.44320574945421,-20.411854586953456 Z M 83.02874982699083,-26.214183948657045 L 82.33534768662915,-25.493633137303796 A 44.78474481604749 44.78474481604749 0 0 1 84.42374214406291,-23.34480219654832 L 82.20364024298715,-21.327093706988997 L 89.50174560321396,-18.50084917563141 L 87.38387801216393,-26.03508018262741 L 85.16377611108817,-24.01737169306809 A 45.78474481604749 45.78474481604749 0 0 0 83.02874982699083,-26.214183948657045"/><text text-anchor="middle" pointer-events="none" font-size="8px" fill="#000000" x="48.975771289549414" y="-35.44995563557058" transform="rotate(180 48.975771289549414 -38.44995563557058)" font-family="sans-serif">ECONOMIC_FLI…</text></g><g class="relationship" transform="translate(158.77471988463736 59.41893869248694) rotate(187.30545281380864)"><path class="outline" fill="#A5ABB6" stroke="none" d="M 17.9862104268602,-17.370844380187897 L 18.666383164631117,-16.637792508358068 A 47.95124061850166 47.95124061850166 0 0 1 19.034385581941173,-16.97569834210882 L 18.36188735712473,-17.715797077156203 A 48.95124061850166 48.95124061850166 0 0 0 17.9862104268602,-17.370844380187897 Z M 80.99132441483454,-20.391426960363212 L 80.38439772076468,-19.596669143147523 A 47.95124061850166 47.95124061850166 0 0 1 80.77987843516078,-19.29138053188012 L 78.93435567418244,-16.9262070205472 L 86.60620375510064,-15.379356341486147 L 83.24057544979856,-22.444945213657345 L 81.39505268882021,-20.079771702324425 A 48.95124061850166 48.95124061850166 0 0 0 80.99132441483454,-20.391426960363212"/><text text-anchor="middle" pointer-events="none" font-size="8px" fill="#000000" x="49.21348151306505" y="-26.894131832576107" transform="rotate(180 49.21348151306505 -29.894131832576107)" font-family="sans-serif">ECONOMIC_F…</text></g><g class="relationship" transform="translate(158.77471988463736 59.41893869248694) rotate(187.30545281380864)"><path class="outline" fill="#A5ABB6" stroke="none" d="M 20.90208894244944,-13.724164012497553 L 21.434121018964774,-12.87743981326927 A 56.100731655423665 56.100731655423665 0 0 1 22.172516173592346,-13.333476163142421 L 21.653646049387415,-14.188329246547731 A 57.100731655423665 57.100731655423665 0 0 0 20.90208894244944,-13.724164012497553 Z M 77.60855879797965,-16.04491327977037 L 77.14749554608962,-15.157546006451945 A 56.100731655423665 56.100731655423665 0 0 1 77.91449596465101,-14.75145868245655 L 76.49029067874116,-12.111072478965394 L 84.31276465378201,-11.868377382582088 L 79.81343634586415,-18.271973620444758 L 78.3892310599543,-15.631587416953602 A 57.100731655423665 57.100731655423665 0 0 0 77.60855879797965,-16.04491327977037"/><text text-anchor="middle" pointer-events="none" font-size="8px" fill="#000000" x="49.40453038152073" y="-18.94519385864993" transform="rotate(180 49.40453038152073 -21.94519385864993)" font-family="sans-serif">ECONOMIC…</text></g><g class="relationship" transform="translate(158.77471988463736 59.41893869248694) rotate(187.30545281380864)"><path class="outline" fill="#A5ABB6" stroke="none" d="M 23.08917320392191,-9.598962483481976 L 23.454514228288303,-8.668088734837774 A 76.16717995358199 76.16717995358199 0 0 1 24.422078460463553,-9.040251048632186 L 24.069440600803595,-9.976010921641517 A 77.16717995358199 77.16717995358199 0 0 0 23.08917320392191,-9.598962483481976 Z M 75.1939771487961,-11.134770128730551 L 74.88409842331266,-10.183994037585649 A 76.16717995358199 76.16717995358199 0 0 1 75.86753081879691,-9.856051886123241 L 74.89916014819505,-7.016640284344077 L 82.6542196680486,-8.069755588348777 L 77.15869171293272,-13.641934021828792 L 76.19032104233086,-10.802522420049629 A 77.16717995358199 77.16717995358199 0 0 0 75.1939771487961,-11.134770128730551"/><text text-anchor="middle" pointer-events="none" font-size="8px" fill="#000000" x="49.54426194429317" y="-11.413555161417293" transform="rotate(180 49.54426194429317 -14.413555161417293)" font-family="sans-serif">FIRST_CL…</text></g><g class="relationship" transform="translate(158.77471988463736 59.41893869248694) rotate(463.4281907572887)"><path class="outline" fill="#A5ABB6" stroke="none" d="M 17.324116139070416,18.03122292025696 L 18.031222920256962,17.324116139070412 A 47.020747555785306 47.020747555785306 0 0 0 18.962860366057868,18.230350932042086 L 18.275566911843534,18.956730796709422 A 48.020747555785306 48.020747555785306 0 0 1 17.324116139070416,18.03122292025696 Z M 81.05647521934316,21.749668561482665 L 80.43639818261359,20.965127632964155 A 47.020747555785306 47.020747555785306 0 0 0 81.44482748138263,20.145200697319904 L 79.52025694543902,17.843890580847617 L 87.13531284247523,16.038087799530174 L 84.01092152930745,23.21361418594962 L 82.08635099336384,20.912304069477333 A 48.020747555785306 48.020747555785306 0 0 1 81.05647521934316,21.749668561482665"/><text text-anchor="middle" pointer-events="none" font-size="8px" fill="#000000" x="49.167943094207125" y="34.54921981459025" transform="rotate(180 49.167943094207125 31.549219814590252)" font-family="sans-serif">FIRST_CLASS…</text></g><g class="relationship" transform="translate(158.77471988463736 59.41893869248694) rotate(187.30545281380864)"><path class="outline" fill="#A5ABB6" stroke="none" d="M 24.471206027250748,-5.139073415689509 L 24.657117634413662,-4.15650694245622 A 143.2099509412817 143.2099509412817 0 0 1 26.179829200681343,-4.436102820545699 L 26.00455031531087,-5.420621643292776 A 144.2099509412817 144.2099509412817 0 0 0 24.471206027250748,-5.139073415689509 Z M 73.28761482975273,-5.964231036875475 L 73.13501714207247,-4.975942644899419 A 143.2099509412817 143.2099509412817 0 0 1 74.66375435102165,-4.731429015291051 L 74.173936895844,-1.7716859756669558 L 81.65145768600749,-4.081812126480521 L 75.31684429125853,-8.677753068123177 L 74.82702683608088,-5.718010028499083 A 144.2099509412817 144.2099509412817 0 0 0 73.28761482975273,-5.964231036875475"/><text text-anchor="middle" pointer-events="none" font-size="8px" fill="#000000" x="49.62939780815658" y="-4.143664673480828" transform="rotate(180 49.62939780815658 -7.143664673480828)" font-family="sans-serif">FIRST_C…</text></g><g class="relationship" transform="translate(158.77471988463736 59.41893869248694) rotate(187.30545281380864)"><path class="outline" fill="#A5ABB6" stroke="none" d="M 25 0.5 L 25.990022758104146 0.5 L 25.990022758104146 -0.5 L 25 -0.5 Z M 73.32596025810415 0.5 L 74.31598301620829 0.5 L 74.31598301620829 3.5 L 81.31598301620829 0 L 74.31598301620829 -3.5 L 74.31598301620829 -0.5 L 73.32596025810415 -0.5 Z"/><text text-anchor="middle" pointer-events="none" font-size="8px" fill="#000000" x="49.657991508104146" y="3" transform="rotate(180 49.657991508104146 0)" font-family="sans-serif">FIRST_C…</text></g><g class="relationship" transform="translate(158.77471988463736 59.41893869248694) rotate(187.30545281380864)"><path class="outline" fill="#A5ABB6" stroke="none" d="M 24.471206027250748,5.139073415689509 L 24.657117634413662,4.15650694245622 A 143.2099509412817 143.2099509412817 0 0 0 26.1798292006814,4.436102820545727 L 26.004550315310926,5.420621643292776 A 144.2099509412817 144.2099509412817 0 0 1 24.471206027250748,5.139073415689509 Z M 73.28761482975277,5.964231036875475 L 73.13501714207251,4.975942644899419 A 143.2099509412817 143.2099509412817 0 0 0 74.66375435102165,4.731429015291051 L 74.173936895844,1.7716859756669558 L 81.65145768600749,4.081812126480521 L 75.31684429125853,8.677753068123177 L 74.82702683608088,5.718010028499083 A 144.2099509412817 144.2099509412817 0 0 1 73.28761482975277,5.964231036875475"/><text text-anchor="middle" pointer-events="none" font-size="8px" fill="#000000" x="49.629397808156625" y="10.143664673480828" transform="rotate(180 49.629397808156625 7.143664673480828)" font-family="sans-serif">FIRST_C…</text></g><g class="relationship" transform="translate(158.77471988463736 59.41893869248694) rotate(187.30545281380864)"><path class="outline" fill="#A5ABB6" stroke="none" d="M 23.08917320392191,9.598962483481976 L 23.454514228288303,8.668088734837774 A 76.16717995358199 76.16717995358199 0 0 0 24.422078460463577,9.040251048632186 L 24.06944060080362,9.976010921641517 A 77.16717995358199 77.16717995358199 0 0 1 23.08917320392191,9.598962483481976 Z M 75.19397714879611,11.134770128730551 L 74.88409842331268,10.183994037585649 A 76.16717995358199 76.16717995358199 0 0 0 75.86753081879691,9.856051886123241 L 74.89916014819505,7.016640284344077 L 82.6542196680486,8.069755588348777 L 77.15869171293272,13.641934021828792 L 76.19032104233086,10.802522420049629 A 77.16717995358199 77.16717995358199 0 0 1 75.19397714879611,11.134770128730551"/><text text-anchor="middle" pointer-events="none" font-size="8px" fill="#000000" x="49.54426194429319" y="17.413555161417293" transform="rotate(180 49.54426194429319 14.413555161417293)" font-family="sans-serif">FIRST_CL…</text></g><g class="relationship" transform="translate(158.77471988463736 59.41893869248694) rotate(187.30545281380864)"><path class="outline" fill="#A5ABB6" stroke="none" d="M 20.90208894244944,13.724164012497553 L 21.434121018964774,12.87743981326927 A 56.100731655423665 56.100731655423665 0 0 0 21.789519589970485,13.09890576253251 L 21.263822521226324,13.949577609905987 A 57.100731655423665 57.100731655423665 0 0 1 20.90208894244944,13.724164012497553 Z M 78.01335108256106,15.83252699619623 L 77.54519873964108,14.948879224842429 A 56.100731655423665 56.100731655423665 0 0 0 77.91449596465101,14.75145868245655 L 76.49029067874116,12.111072478965394 L 84.31276465378201,11.868377382582088 L 79.81343634586415,18.271973620444758 L 78.3892310599543,15.631587416953602 A 57.100731655423665 57.100731655423665 0 0 1 78.01335108256106,15.83252699619623"/><text text-anchor="middle" pointer-events="none" font-size="8px" fill="#000000" x="49.40453038152073" y="24.94519385864993" transform="rotate(180 49.40453038152073 21.94519385864993)" font-family="sans-serif">BUSINESS_…</text></g><g class="relationship" transform="translate(158.77471988463736 59.41893869248694) rotate(463.4281907572887)"><path class="outline" fill="#A5ABB6" stroke="none" d="M 5.987513214418485,24.277555179777966 L 6.953439040707552,24.018736134675446 A 45.890142002933125 45.890142002933125 0 0 0 14.833233657939985,40.025982704342624 L 14.039017795344833,40.633618420542916 A 46.890142002933125 46.890142002933125 0 0 1 5.987513214418485,24.277555179777966 Z M 84.68109870268955,45.051160201328315 L 83.96877016405585,44.34931402655212 A 45.890142002933125 45.890142002933125 0 0 0 93.7813771121819,29.448446574169477 L 91.00290686451618,28.31703016858028 L 96.88442709983433,23.15391873054766 L 97.48600410906954,30.95700178162174 L 94.70753386140382,29.825585376032546 A 46.890142002933125 46.890142002933125 0 0 1 84.68109870268955,45.051160201328315"/><text text-anchor="middle" pointer-events="none" font-size="8px" fill="#000000" x="48.38460029884012" y="61.44119580957394" transform="rotate(180 48.38460029884012 58.44119580957394)" font-family="sans-serif">BUSINESS_FLIGHT</text></g><g class="relationship" transform="translate(158.77471988463736 59.41893869248694) rotate(187.30545281380864)"><path class="outline" fill="#A5ABB6" stroke="none" d="M 17.9862104268602,17.370844380187897 L 18.666383164631117,16.637792508358068 A 47.95124061850166 47.95124061850166 0 0 0 18.703904162058308,16.672569676934906 L 18.024513906595317,17.406346809845118 A 48.95124061850166 48.95124061850166 0 0 1 17.9862104268602,17.370844380187897 Z M 81.35386085744237,20.11187796493973 L 80.73952809075766,19.322830911984383 A 47.95124061850166 47.95124061850166 0 0 0 80.77987843516078,19.29138053188012 L 78.93435567418244,16.9262070205472 L 86.60620375510064,15.379356341486147 L 83.24057544979856,22.444945213657345 L 81.39505268882021,20.079771702324425 A 48.95124061850166 48.95124061850166 0 0 1 81.35386085744237,20.11187796493973"/><text text-anchor="middle" pointer-events="none" font-size="8px" fill="#000000" x="49.213481513065055" y="32.89413183257611" transform="rotate(180 49.213481513065055 29.894131832576107)" font-family="sans-serif">BUSINESS_FL…</text></g><g class="relationship" transform="translate(158.77471988463736 59.41893869248694) rotate(187.30545281380864)"><path class="outline" fill="#A5ABB6" stroke="none" d="M 14.44320574945421,20.411854586953456 L 15.247803529220876,19.818034401379958 A 44.78474481604749 44.78474481604749 0 0 0 15.459535864153274,20.102556650519098 L 14.65966586246823,20.702729942497644 A 45.78474481604749 45.78474481604749 0 0 1 14.44320574945421,20.411854586953456 Z M 84.91885607623873,24.284724698509056 L 84.18417149001343,23.606315855138817 A 44.78474481604749 44.78474481604749 0 0 0 84.42374214406291,23.34480219654832 L 82.20364024298715,21.327093706988997 L 89.50174560321396,18.50084917563141 L 87.38387801216393,26.03508018262741 L 85.16377611108817,24.01737169306809 A 45.78474481604749 45.78474481604749 0 0 1 84.91885607623873,24.284724698509056"/><text text-anchor="middle" pointer-events="none" font-size="8px" fill="#000000" x="48.97577128954943" y="41.44995563557058" transform="rotate(180 48.97577128954943 38.44995563557058)" font-family="sans-serif">BUSINESS_FLIGHT</text></g><g class="relationship" transform="translate(158.77471988463736 59.41893869248694) rotate(187.30545281380864)"><path class="outline" fill="#A5ABB6" stroke="none" d="M 10.396609043987748,22.74116356711926 L 11.29757791189017,22.307279828001697 A 44.378816281219024 44.378816281219024 0 0 0 15.399259203217596,29.166079654606353 L 14.590714641212294,29.754514605345733 A 45.378816281219024 45.378816281219024 0 0 1 10.396609043987748,22.74116356711926 Z M 84.65918856638238,33.79561006393408 L 83.9236542019797,33.118122647975134 A 44.378816281219024 44.378816281219024 0 0 0 88.78665908581097,26.776347819357305 L 86.25131773696656,25.17258840945825 L 92.95132126704951,21.127844573703502 L 92.16711421760353,28.91469369922271 L 89.63177286875911,27.310934289323654 A 45.378816281219024 45.378816281219024 0 0 1 84.65918856638238,33.79561006393408"/><text text-anchor="middle" pointer-events="none" font-size="8px" fill="#000000" x="48.69748448415104" y="50.85639630839641" transform="rotate(180 48.69748448415104 47.85639630839641)" font-family="sans-serif">BUSINESS_FLIGHT</text></g><g class="relationship" transform="translate(158.77471988463736 59.41893869248694) rotate(187.30545281380864)"><path class="outline" fill="#A5ABB6" stroke="none" d="M 5.987513214418485,24.277555179777966 L 6.953439040707552,24.018736134675446 A 45.891795755398014 45.891795755398014 0 0 0 14.834417388504093,40.02773556731704 L 14.040221132132096,40.635396909155325 A 46.891795755398014 46.891795755398014 0 0 1 5.987513214418485,24.277555179777966 Z M 84.68292922667435,45.05285183668161 L 83.97062083854442,44.35098521103272 A 45.891795755398014 45.891795755398014 0 0 0 93.78456768410683,29.448491128992895 L 91.00609341378077,28.317084602082225 L 96.88759529195274,23.153952252717193 L 97.48920004454158,30.957033164873785 L 94.71072577421552,29.825626637963115 A 46.891795755398014 46.891795755398014 0 0 1 84.68292922667435,45.05285183668161"/><text text-anchor="middle" pointer-events="none" font-size="8px" fill="#000000" x="48.38617679742037" y="61.44242346250062" transform="rotate(180 48.38617679742037 58.44242346250062)" font-family="sans-serif">BUSINESS_FLIGHT</text></g></g><g class="layer nodes"><g class="node" transform="translate(134.08604765192754,162.82542573778395)"><circle class="outline" cx="0" cy="0" r="25" fill="#ECB5C9" stroke="#da7298" stroke-width="2px"/><text text-anchor="middle" pointer-events="none" font-family="sans-serif" dy="1.5625" font-size="25" fill="#2A2C34"/><text text-anchor="middle" pointer-events="none" x="0" y="5" font-size="10px" fill="#2A2C34" font-family="sans-serif"> MSN</text></g><g class="node" transform="translate(158.77471988463736,59.41893869248694)"><circle class="outline" cx="0" cy="0" r="25" fill="#ECB5C9" stroke="#da7298" stroke-width="2px"/><text text-anchor="middle" pointer-events="none" font-family="sans-serif" dy="1.5625" font-size="25" fill="#2A2C34"/><text text-anchor="middle" pointer-events="none" x="0" y="5" font-size="10px" fill="#2A2C34" font-family="sans-serif"> ORD</text></g><g class="node" transform="translate(53.32177329531893,45.89990395131386)"><circle class="outline" cx="0" cy="0" r="25" fill="#ECB5C9" stroke="#da7298" stroke-width="2px"/><text text-anchor="middle" pointer-events="none" font-family="sans-serif" dy="1.5625" font-size="25" fill="#2A2C34"/><text text-anchor="middle" pointer-events="none" x="0" y="5" font-size="10px" fill="#2A2C34" font-family="sans-serif"> GRR</text></g></g></svg>