<svg xmlns="http://www.w3.org/2000/svg" width="387.2707214355469" height="348.6235656738281" viewBox="-80.0468521118164 -81.63198852539062 387.2707214355469 348.6235656738281"><title>Neo4j Graph Visualization</title><desc>Created using Neo4j (http://www.neo4j.com/)</desc><g class="layer relationships"><g class="relationship" transform="translate(39.24964132746442 13.811667709792273) rotate(371.66782477326115)"><path class="outline" fill="#A5ABB6" stroke="none" d="M 24.018736134675446,-6.953439040707552 L 24.277555179777966,-5.987513214418485 A 123.64543077386851 123.64543077386851 0 0 1 43.51592087394313,-9.540105905084133 L 43.412694846502134,-10.534763829829501 A 124.64543077386851 124.64543077386851 0 0 0 24.018736134675446,-6.953439040707552 Z M 65.48172556117672,-10.860466320638665 L 65.40789711836833,-9.863195363961154 A 123.64543077386851 123.64543077386851 0 0 1 84.74272204426283,-6.879879340940744 L 84.05211727960256,-3.9604504483268976 L 91.6698235878052,-5.755039705502384 L 85.66352839714321,-10.772451197759207 L 84.97292363248293,-7.85302230514536 A 124.64543077386851 124.64543077386851 0 0 0 65.48172556117672,-10.860466320638665"/><text text-anchor="middle" pointer-events="none" font-size="8px" fill="#000000" x="54.447365221957476" y="-7.687111318876191" font-family="sans-serif">road</text></g><g class="relationship" transform="translate(152.85111009536124 37.270878291172146) rotate(372.42282333251023)"><path class="outline" fill="#A5ABB6" stroke="none" d="M 21.40063509461097,-12.933012701892217 L 21.90063509461097,-12.06698729810778 A 81.46928152382323 81.46928152382323 0 0 1 37.82455556701579,-19.11195279826022 L 37.52001476555737,-20.06445208972822 A 82.46928152382323 82.46928152382323 0 0 0 21.40063509461097,-12.933012701892217 Z M 83.62927891406952,-21.26485043620241 L 83.37471136273851,-20.297795442001274 A 81.46928152382323 81.46928152382323 0 0 1 99.64362703154836,-14.090931091061721 L 98.2808427839346,-11.418325790151057 L 106.10683677494221,-11.356535396781382 L 101.46067269503338,-17.654404825609276 L 100.09788844741962,-14.98179952469861 A 82.46928152382323 82.46928152382323 0 0 0 83.62927891406952,-21.26485043620241"/><text text-anchor="middle" pointer-events="none" font-size="8px" fill="#000000" x="60.50202856853948" y="-20.45403785451991" font-family="sans-serif">twowheeler</text></g><g class="relationship" transform="translate(278.2238874718997 64.88823118480968) rotate(218.85441362205177)"><path class="outline" fill="#A5ABB6" stroke="none" d="M 21.40063509461097,12.933012701892217 L 21.90063509461097,12.06698729810778 A 49.09505029157495 49.09505029157495 0 0 0 34.023381577696895,17.046256316737676 L 33.7703055834997,18.013702718953894 A 50.09505029157495 50.09505029157495 0 0 1 21.40063509461097,12.933012701892217 Z M 55.80919861812541,18.762077604033983 L 55.62233308304277,17.77969210342932 A 49.09505029157495 49.09505029157495 0 0 0 68.05492749569405,13.634249012085245 L 66.7346253189793,10.940403774852365 L 74.56061674535657,11.00251813928963 L 69.81533039798039,17.22604266172909 L 68.49502822126564,14.532197424496207 A 50.09505029157495 50.09505029157495 0 0 1 55.80919861812541,18.762077604033983"/><text text-anchor="middle" pointer-events="none" font-size="8px" fill="#000000" x="44.765030790972126" y="22.11590804946821" transform="rotate(180 44.765030790972126 19.11590804946821)" font-family="sans-serif">road</text></g><g class="relationship" transform="translate(202.678598697161 4.030044556159294) rotate(466.2383260400244)"><path class="outline" fill="#A5ABB6" stroke="none" d="M 25 0.5 L 62.72534748313896 0.5 L 62.72534748313896 -0.5 L 25 -0.5 Z M 82.06128498313896 0.5 L 119.78663246627792 0.5 L 119.78663246627792 3.5 L 126.78663246627792 0 L 119.78663246627792 -3.5 L 119.78663246627792 -0.5 L 82.06128498313896 -0.5 Z"/><text text-anchor="middle" pointer-events="none" font-size="8px" fill="#000000" x="72.39331623313896" y="3" transform="rotate(180 72.39331623313896 0)" font-family="sans-serif">trek</text></g><g class="relationship" transform="translate(39.24964132746442 13.811667709792273) rotate(371.66782477326115)"><path class="outline" fill="#A5ABB6" stroke="none" d="M 24.018736134675446,6.953439040707552 L 24.277555179777966,5.987513214418485 A 123.64543077386851 123.64543077386851 0 0 0 44.842020277911416,9.670510523550476 L 44.74951926793098,10.666223114187247 A 124.64543077386851 124.64543077386851 0 0 1 24.018736134675446,6.953439040707552 Z M 64.1416039580495,10.952418297256798 L 64.07852698518916,9.954409632216866 A 123.64543077386851 123.64543077386851 0 0 0 84.74272204426283,6.879879340940744 L 84.05211727960256,3.9604504483268976 L 91.6698235878052,5.755039705502384 L 85.66352839714321,10.772451197759207 L 84.97292363248293,7.85302230514536 A 124.64543077386851 124.64543077386851 0 0 1 64.1416039580495,10.952418297256798"/><text text-anchor="middle" pointer-events="none" font-size="8px" fill="#000000" x="54.44736522195751" y="13.687111318876191" font-family="sans-serif">trek</text></g><g class="relationship" transform="translate(152.85111009536124 37.270878291172146) rotate(372.42282333251023)"><path class="outline" fill="#A5ABB6" stroke="none" d="M 25 0.5 L 51.021305057932224 0.5 L 51.021305057932224 -0.5 L 25 -0.5 Z M 70.35724255793222 0.5 L 96.37854761586445 0.5 L 96.37854761586445 3.5 L 103.37854761586445 0 L 96.37854761586445 -3.5 L 96.37854761586445 -0.5 L 70.35724255793222 -0.5 Z"/><text text-anchor="middle" pointer-events="none" font-size="8px" fill="#000000" x="60.689273807932224" y="3" font-family="sans-serif">trek</text></g><g class="relationship" transform="translate(152.85111009536124 37.270878291172146) rotate(372.42282333251023)"><path class="outline" fill="#A5ABB6" stroke="none" d="M 21.40063509461097,12.933012701892217 L 21.90063509461097,12.06698729810778 A 81.46928152382323 81.46928152382323 0 0 0 49.6319301040116,21.93737194518056 L 49.47231969000901,22.924552027912128 A 82.46928152382323 82.46928152382323 0 0 1 21.40063509461097,12.933012701892217 Z M 71.54434699581162,23.499170286747926 L 71.4363180306664,22.505022539836204 A 81.46928152382323 81.46928152382323 0 0 0 99.64362703154836,14.090931091061721 L 98.2808427839346,11.418325790151057 L 106.10683677494221,11.356535396781382 L 101.46067269503338,17.654404825609276 L 100.09788844741962,14.98179952469861 A 82.46928152382323 82.46928152382323 0 0 1 71.54434699581162,23.499170286747926"/><text text-anchor="middle" pointer-events="none" font-size="8px" fill="#000000" x="60.50202856853949" y="26.45403785451991" font-family="sans-serif">road</text></g><g class="relationship" transform="translate(278.2238874718997 64.88823118480968) rotate(218.85441362205177)"><path class="outline" fill="#A5ABB6" stroke="none" d="M 25 0.5 L 35.33669477781529 0.5 L 35.33669477781529 -0.5 L 25 -0.5 Z M 54.67263227781529 0.5 L 65.00932705563058 0.5 L 65.00932705563058 3.5 L 72.00932705563058 0 L 65.00932705563058 -3.5 L 65.00932705563058 -0.5 L 54.67263227781529 -0.5 Z"/><text text-anchor="middle" pointer-events="none" font-size="8px" fill="#000000" x="45.00466352781529" y="3" transform="rotate(180 45.00466352781529 0)" font-family="sans-serif">trek</text></g><g class="relationship" transform="translate(278.2238874718997 64.88823118480968) rotate(218.85441362205177)"><path class="outline" fill="#A5ABB6" stroke="none" d="M 21.40063509461097,-12.933012701892217 L 21.90063509461097,-12.06698729810778 A 49.09505029157495 49.09505029157495 0 0 1 22.807992118325085,-12.578096223923687 L 22.326473757886003,-13.454532227611388 A 50.09505029157495 50.09505029157495 0 0 0 21.40063509461097,-12.933012701892217 Z M 67.53594453506196,-14.98971062537592 L 67.11498908792848,-14.082629310647931 A 49.09505029157495 49.09505029157495 0 0 1 68.05492749569405,-13.634249012085245 L 66.7346253189793,-10.940403774852365 L 74.56061674535657,-11.00251813928963 L 69.81533039798039,-17.22604266172909 L 68.49502822126564,-14.532197424496207 A 50.09505029157495 50.09505029157495 0 0 0 67.53594453506196,-14.98971062537592"/><text text-anchor="middle" pointer-events="none" font-size="8px" fill="#000000" x="44.76503079097214" y="-16.11590804946821" transform="rotate(180 44.76503079097214 -19.11590804946821)" font-family="sans-serif">twowheeler</text></g><g class="relationship" transform="translate(39.24964132746442 13.811667709792273) rotate(306.71973718693545)"><path class="outline" fill="#A5ABB6" stroke="none" d="M 21.40063509461097,12.933012701892217 L 21.90063509461097,12.06698729810778 A 34.277154073852046 34.277154073852046 0 0 0 22.715313026314863,12.522665285967737 L 22.239080400057404,13.401984616864041 A 35.277154073852046 35.277154073852046 0 0 1 21.40063509461097,12.933012701892217 Z M 53.35015517781074,14.626085170256403 L 52.94448347832177,13.712066312555027 A 34.277154073852046 34.277154073852046 0 0 0 53.79244578157002,13.321806792113398 L 52.50121545204093,10.613906454932536 L 60.3260849565802,10.760252746075682 L 55.514086220942126,16.93234057502121 L 54.22285589141304,14.22444023784035 A 35.277154073852046 35.277154073852046 0 0 1 53.35015517781074,14.626085170256403"/><text text-anchor="middle" pointer-events="none" font-size="8px" fill="#000000" x="37.67192347965467" y="20.132366815082293" font-family="sans-serif">Publi…</text></g><g class="relationship" transform="translate(88.81082923479913 -52.631986891845266) rotate(494.46101531170416)"><path class="outline" fill="#A5ABB6" stroke="none" d="M 24.018736134675446,-6.953439040707552 L 24.277555179777966,-5.987513214418485 A 188.01973179350156 188.01973179350156 0 0 1 47.65375475122367,-10.685946228038802 L 47.51926414414446,-11.676861096535333 A 189.01973179350156 189.01973179350156 0 0 0 24.018736134675446,-6.953439040707552 Z M 93.98634959556088,-12.218847969325253 L 93.87500827276422,-11.225065744772053 A 188.01973179350156 188.01973179350156 0 0 1 117.35443730162253,-7.073151527649913 L 116.64578091346114,-4.158051851220639 L 124.27444594465106,-5.905469901344892 L 118.29931248583772,-10.959951096222278 L 117.59065609767633,-8.044851419793005 A 189.01973179350156 189.01973179350156 0 0 0 93.98634959556088,-12.218847969325253"/><text text-anchor="middle" pointer-events="none" font-size="8px" fill="#000000" x="70.74191917540138" y="-9.881307820889958" transform="rotate(180 70.74191917540138 -12.881307820889958)" font-family="sans-serif">twowheeler</text></g><g class="relationship" transform="translate(-15.248993489544038 53.40428011478124) rotate(418.6051846047066)"><path class="outline" fill="#A5ABB6" stroke="none" d="M 24.018736134675446,-6.953439040707552 L 24.277555179777966,-5.987513214418485 A 121.07307184335845 121.07307184335845 0 0 1 30.847035410749854,-7.5528059298709 L 30.642476822831995,-8.531660252080826 A 122.07307184335845 122.07307184335845 0 0 0 24.018736134675446,-6.953439040707552 Z M 77.0098113392028,-9.223248743940076 L 76.83453730870447,-8.238729056867811 A 121.07307184335845 121.07307184335845 0 0 1 83.44777879255093,-6.870062236012216 L 82.75809099459062,-3.9504165826246957 L 90.37523328344854,-5.747398316336043 L 84.3673625231647,-10.762923107195576 L 83.67767472520438,-7.843277453808056 A 122.07307184335845 122.07307184335845 0 0 0 77.0098113392028,-9.223248743940076"/><text text-anchor="middle" pointer-events="none" font-size="8px" fill="#000000" x="53.80045967951739" y="-7.599457177670516" font-family="sans-serif">twowheeler</text></g><g class="relationship" transform="translate(44.504876388303146 151.31675559884553) rotate(359.2300275511848)"><path class="outline" fill="#A5ABB6" stroke="none" d="M 24.018736134675446,6.953439040707552 L 24.277555179777966,5.987513214418485 A 123.1305363429472 123.1305363429472 0 0 0 44.712797826689666,9.651116539966907 L 44.6199428328603,10.646796182282117 A 124.1305363429472 124.1305363429472 0 0 1 24.018736134675446,6.953439040707552 Z M 64.0121788873476,10.933598315269407 L 63.94880934025571,9.935608184806497 A 123.1305363429472 123.1305363429472 0 0 0 84.48345660162957,6.877930435913384 L 83.79303387406955,3.9584584875520754 L 91.41062826906597,5.753522729666878 L 85.40402023837626,10.770559700395129 L 84.71359751081624,7.851087752033821 A 124.1305363429472 124.1305363429472 0 0 1 64.0121788873476,10.933598315269407"/><text text-anchor="middle" pointer-events="none" font-size="8px" fill="#000000" x="54.31784494236375" y="13.669565843554949" font-family="sans-serif">trek</text></g><g class="relationship" transform="translate(39.24964132746442 13.811667709792273) rotate(306.71973718693545)"><path class="outline" fill="#A5ABB6" stroke="none" d="M 25 0.5 L 28.27799179987702 0.5 L 28.27799179987702 -0.5 L 25 -0.5 Z M 47.61392929987702 0.5 L 50.89192109975404 0.5 L 50.89192109975404 3.5 L 57.89192109975404 0 L 50.89192109975404 -3.5 L 50.89192109975404 -0.5 L 47.61392929987702 -0.5 Z"/><text text-anchor="middle" pointer-events="none" font-size="8px" fill="#000000" x="37.94596054987702" y="3" font-family="sans-serif">trek</text></g><g class="relationship" transform="translate(39.24964132746442 13.811667709792273) rotate(306.71973718693545)"><path class="outline" fill="#A5ABB6" stroke="none" d="M 21.40063509461097,-12.933012701892217 L 21.90063509461097,-12.06698729810778 A 34.277154073852046 34.277154073852046 0 0 1 27.099290414317153,-14.512484864210386 L 26.750955727852386,-15.449855093205045 A 35.277154073852046 35.277154073852046 0 0 0 21.40063509461097,-12.933012701892217 Z M 48.69132560943875,-16.31312385217727 L 48.417717555407656,-15.351282580049002 A 34.277154073852046 34.277154073852046 0 0 1 53.79244578157002,-13.321806792113398 L 52.50121545204093,-10.613906454932536 L 60.3260849565802,-10.760252746075682 L 55.514086220942126,-16.93234057502121 L 54.22285589141304,-14.22444023784035 A 35.277154073852046 35.277154073852046 0 0 0 48.69132560943875,-16.31312385217727"/><text text-anchor="middle" pointer-events="none" font-size="8px" fill="#000000" x="37.67192347965466" y="-14.132366815082293" font-family="sans-serif">road</text></g><g class="relationship" transform="translate(88.81082923479913 -52.631986891845266) rotate(494.46101531170416)"><path class="outline" fill="#A5ABB6" stroke="none" d="M 24.018736134675446,6.953439040707552 L 24.277555179777966,5.987513214418485 A 188.01973179350156 188.01973179350156 0 0 0 61.113188351446105,12.021756169395701 L 61.05028296295982,13.01977566424506 A 189.01973179350156 189.01973179350156 0 0 1 24.018736134675446,6.953439040707552 Z M 80.42768901705601,13.245791555020531 L 80.38807915028173,12.246576333732264 A 188.01973179350156 188.01973179350156 0 0 0 117.35443730162253,7.073151527649913 L 116.64578091346114,4.158051851220639 L 124.27444594465106,5.905469901344892 L 118.29931248583772,10.959951096222278 L 117.59065609767633,8.044851419793005 A 189.01973179350156 189.01973179350156 0 0 1 80.42768901705601,13.245791555020531"/><text text-anchor="middle" pointer-events="none" font-size="8px" fill="#000000" x="70.74191917540138" y="15.881307820889958" transform="rotate(180 70.74191917540138 12.881307820889958)" font-family="sans-serif">trek</text></g><g class="relationship" transform="translate(-15.248993489544038 53.40428011478124) rotate(418.6051846047066)"><path class="outline" fill="#A5ABB6" stroke="none" d="M 24.018736134675446,6.953439040707552 L 24.277555179777966,5.987513214418485 A 121.07307184335845 121.07307184335845 0 0 0 44.196631000624876,9.573479099935142 L 44.102333062632106,10.569023121508422 A 122.07307184335845 122.07307184335845 0 0 1 24.018736134675446,6.953439040707552 Z M 63.49517984552135,10.858275669650922 L 63.43061517368504,9.860362144764778 A 121.07307184335845 121.07307184335845 0 0 0 83.44777879255093,6.870062236012216 L 82.75809099459062,3.9504165826246957 L 90.37523328344854,5.747398316336043 L 84.3673625231647,10.762923107195576 L 83.67767472520438,7.843277453808056 A 122.07307184335845 122.07307184335845 0 0 1 63.49517984552135,10.858275669650922"/><text text-anchor="middle" pointer-events="none" font-size="8px" fill="#000000" x="53.80045967951743" y="13.599457177670516" font-family="sans-serif">trek</text></g><g class="relationship" transform="translate(88.81082923479913 -52.631986891845266) rotate(386.4555141878834)"><path class="outline" fill="#A5ABB6" stroke="none" d="M 25 0.5 L 50.42537746276869 0.5 L 50.42537746276869 -0.5 L 25 -0.5 Z M 69.7613149627687 0.5 L 95.18669242553737 0.5 L 95.18669242553737 3.5 L 102.18669242553737 0 L 95.18669242553737 -3.5 L 95.18669242553737 -0.5 L 69.7613149627687 -0.5 Z"/><text text-anchor="middle" pointer-events="none" font-size="8px" fill="#000000" x="60.09334621276869" y="3" font-family="sans-serif">trek</text></g><g class="relationship" transform="translate(44.504876388303146 151.31675559884553) rotate(359.2300275511848)"><path class="outline" fill="#A5ABB6" stroke="none" d="M 24.018736134675446,-6.953439040707552 L 24.277555179777966,-5.987513214418485 A 123.1305363429472 123.1305363429472 0 0 1 31.357288876344924,-7.662019861333576 L 31.15596762104207,-8.641545130105783 A 124.1305363429472 124.1305363429472 0 0 0 24.018736134675446,-6.953439040707552 Z M 77.52956591426367,-9.327389035234745 L 77.35729981822293,-8.3423385836563 A 123.1305363429472 123.1305363429472 0 0 1 84.48345660162957,-6.877930435913384 L 83.79303387406955,-3.9584584875520754 L 91.41062826906597,-5.753522729666878 L 85.40402023837626,-10.770559700395129 L 84.71359751081624,-7.851087752033821 A 124.1305363429472 124.1305363429472 0 0 0 77.52956591426367,-9.327389035234745"/><text text-anchor="middle" pointer-events="none" font-size="8px" fill="#000000" x="54.31784494236371" y="-7.669565843554949" font-family="sans-serif">twowheeler</text></g><g class="relationship" transform="translate(88.81082923479913 -52.631986891845266) rotate(414.53668490954306)"><path class="outline" fill="#A5ABB6" stroke="none" d="M 25 0.5 L 42.02189159774749 0.5 L 42.02189159774749 -0.5 L 25 -0.5 Z M 61.35782909774749 0.5 L 78.37972069549498 0.5 L 78.37972069549498 3.5 L 85.37972069549498 0 L 78.37972069549498 -3.5 L 78.37972069549498 -0.5 L 61.35782909774749 -0.5 Z"/><text text-anchor="middle" pointer-events="none" font-size="8px" fill="#000000" x="51.68986034774749" y="3" font-family="sans-serif">trek</text></g><g class="relationship" transform="translate(-15.248993489544038 53.40428011478124) rotate(466.17287247537274)"><path class="outline" fill="#A5ABB6" stroke="none" d="M 24.018736134675446,-6.953439040707552 L 24.277555179777966,-5.987513214418485 A 148.4852745974516 148.4852745974516 0 0 1 37.68547290125922,-8.923397195909871 L 37.51695181841478,-9.90909524533319 A 149.4852745974516 149.4852745974516 0 0 0 24.018736134675446,-6.953439040707552 Z M 83.94485670599117,-10.530866832295345 L 83.8027926491782,-9.54100936590848 A 148.4852745974516 148.4852745974516 0 0 1 97.28452355335378,-6.965236820401846 L 96.5859461728516,-4.047705390673844 L 104.20852645280281,-5.821478170851445 L 98.21596006069001,-10.85527872670585 L 97.51738268018784,-7.9377472969778475 A 149.4852745974516 149.4852745974516 0 0 0 83.94485670599117,-10.530866832295345"/><text text-anchor="middle" pointer-events="none" font-size="8px" fill="#000000" x="60.71331111298737" y="-8.5336677295262" transform="rotate(180 60.71331111298737 -11.5336677295262)" font-family="sans-serif">twowheeler</text></g><g class="relationship" transform="translate(-51.04685172112398 176.83942466282892) rotate(345.04495634482623)"><path class="outline" fill="#A5ABB6" stroke="none" d="M 21.40063509461097,12.933012701892217 L 21.90063509461097,12.06698729810778 A 51.06608478551603 51.06608478551603 0 0 0 23.67733747775093,13.046236159718937 L 23.21212969631639,13.931437673552232 A 52.06608478551603 52.06608478551603 0 0 1 21.40063509461097,12.933012701892217 Z M 68.53117919020876,15.442593026134155 L 68.1259729645102,14.52836771765974 A 51.06608478551603 51.06608478551603 0 0 0 69.96396200196989,13.669650075241693 L 68.64036623723302,10.977421583532522 L 76.46642777674742,11.029964706140536 L 71.72875635495237,17.259288064187253 L 70.4051605902155,14.567059572478081 A 52.06608478551603 52.06608478551603 0 0 1 68.53117919020876,15.442593026134155"/><text text-anchor="middle" pointer-events="none" font-size="8px" fill="#000000" x="45.71517101264715" y="22.379901706575417" font-family="sans-serif">twowheeler</text></g><g class="relationship" transform="translate(-15.248993489544038 53.40428011478124) rotate(466.17287247537274)"><path class="outline" fill="#A5ABB6" stroke="none" d="M 24.018736134675446,6.953439040707552 L 24.277555179777966,5.987513214418485 A 148.4852745974516 148.4852745974516 0 0 0 51.09629336794674,10.592276881952358 L 51.01808979640465,11.589214292925618 A 149.4852745974516 149.4852745974516 0 0 1 24.018736134675446,6.953439040707552 Z M 70.40356784564706,11.848828408184175 L 70.35208989436728,10.85015427688208 A 148.4852745974516 148.4852745974516 0 0 0 97.28452355335378,6.965236820401846 L 96.5859461728516,4.047705390673844 L 104.20852645280281,5.821478170851445 L 98.21596006069001,10.85527872670585 L 97.51738268018784,7.9377472969778475 A 149.4852745974516 149.4852745974516 0 0 1 70.40356784564706,11.848828408184175"/><text text-anchor="middle" pointer-events="none" font-size="8px" fill="#000000" x="60.71331111298745" y="14.5336677295262" transform="rotate(180 60.71331111298745 11.5336677295262)" font-family="sans-serif">trek</text></g><g class="relationship" transform="translate(-51.04685172112398 176.83942466282892) rotate(345.04495634482623)"><path class="outline" fill="#A5ABB6" stroke="none" d="M 25 0.5 L 36.28286385382858 0.5 L 36.28286385382858 -0.5 L 25 -0.5 Z M 55.61880135382858 0.5 L 66.90166520765716 0.5 L 66.90166520765716 3.5 L 73.90166520765716 0 L 66.90166520765716 -3.5 L 66.90166520765716 -0.5 L 55.61880135382858 -0.5 Z"/><text text-anchor="middle" pointer-events="none" font-size="8px" fill="#000000" x="45.95083260382858" y="3" font-family="sans-serif">trek</text></g><g class="relationship" transform="translate(-51.04685172112398 176.83942466282892) rotate(345.04495634482623)"><path class="outline" fill="#A5ABB6" stroke="none" d="M 21.40063509461097,-12.933012701892217 L 21.90063509461097,-12.06698729810778 A 51.06608478551603 51.06608478551603 0 0 1 34.959874881548544,-17.361641369421697 L 34.71560703414626,-18.33134917011501 A 52.06608478551603 52.06608478551603 0 0 0 21.40063509461097,-12.933012701892217 Z M 56.760151756910986,-19.066420450847126 L 56.58102412885979,-18.082594606061193 A 51.06608478551603 51.06608478551603 0 0 1 69.96396200196989,-13.669650075241693 L 68.64036623723302,-10.977421583532522 L 76.46642777674742,-11.029964706140536 L 71.72875635495237,-17.259288064187253 L 70.4051605902155,-14.567059572478081 A 52.06608478551603 52.06608478551603 0 0 0 56.760151756910986,-19.066420450847126"/><text text-anchor="middle" pointer-events="none" font-size="8px" fill="#000000" x="45.71517101264715" y="-16.379901706575417" font-family="sans-serif">road</text></g><g class="relationship" transform="translate(-51.04685172112398 176.83942466282892) rotate(388.250405429117)"><path class="outline" fill="#A5ABB6" stroke="none" d="M 25 0.5 L 51.43040179290402 0.5 L 51.43040179290402 -0.5 L 25 -0.5 Z M 70.76633929290402 0.5 L 97.19674108580804 0.5 L 97.19674108580804 3.5 L 104.19674108580804 0 L 97.19674108580804 -3.5 L 97.19674108580804 -0.5 L 70.76633929290402 -0.5 Z"/><text text-anchor="middle" pointer-events="none" font-size="8px" fill="#000000" x="61.09837054290402" y="3" font-family="sans-serif">trek</text></g><g class="relationship" transform="translate(62.76092819335905 237.99158846861678) rotate(317.84939871264305)"><path class="outline" fill="#A5ABB6" stroke="none" d="M 25 0.5 L 52.56930758730181 0.5 L 52.56930758730181 -0.5 L 25 -0.5 Z M 71.90524508730181 0.5 L 99.47455267460361 0.5 L 99.47455267460361 3.5 L 106.47455267460361 0 L 99.47455267460361 -3.5 L 99.47455267460361 -0.5 L 71.90524508730181 -0.5 Z"/><text text-anchor="middle" pointer-events="none" font-size="8px" fill="#000000" x="62.23727633730181" y="3" font-family="sans-serif">trek</text></g></g><g class="layer nodes"><g class="node" transform="translate(39.24964132746442,13.811667709792273)"><circle class="outline" cx="0" cy="0" r="25" fill="#F79767" stroke="#f36924" stroke-width="2px"/><text text-anchor="middle" pointer-events="none" font-family="sans-serif" dy="1.5625" font-size="25" fill="#FFFFFF"/><text text-anchor="middle" pointer-events="none" x="0" y="5" font-size="10px" fill="#FFFFFF" font-family="sans-serif"> Darjeeling</text></g><g class="node" transform="translate(160.23398673945934,149.76143002687064)"><circle class="outline" cx="0" cy="0" r="25" fill="#F16667" stroke="#eb2728" stroke-width="2px"/><text text-anchor="middle" pointer-events="none" font-family="sans-serif" dy="1.5625" font-size="25" fill="#FFFFFF"/><text text-anchor="middle" pointer-events="none" x="0" y="5" font-size="10px" fill="#FFFFFF" font-family="sans-serif"> Sandak…</text></g><g class="node" transform="translate(152.85111009536124,37.270878291172146)"><circle class="outline" cx="0" cy="0" r="25" fill="#57C7E3" stroke="#23b3d7" stroke-width="2px"/><text text-anchor="middle" pointer-events="none" font-family="sans-serif" dy="1.5625" font-size="25" fill="#2A2C34"/><text text-anchor="middle" pointer-events="none" x="0" y="5" font-size="10px" fill="#2A2C34" font-family="sans-serif"> Tumbling</text></g><g class="node" transform="translate(278.2238874718997,64.88823118480968)"><circle class="outline" cx="0" cy="0" r="25" fill="#57C7E3" stroke="#23b3d7" stroke-width="2px"/><text text-anchor="middle" pointer-events="none" font-family="sans-serif" dy="1.5625" font-size="25" fill="#2A2C34"/><text text-anchor="middle" pointer-events="none" x="0" y="5" font-size="10px" fill="#2A2C34" font-family="sans-serif"> Gairibus</text></g><g class="node" transform="translate(202.678598697161,4.030044556159294)"><circle class="outline" cx="0" cy="0" r="25" fill="#57C7E3" stroke="#23b3d7" stroke-width="2px"/><text text-anchor="middle" pointer-events="none" font-family="sans-serif" dy="1.5625" font-size="25" fill="#2A2C34"/><text text-anchor="middle" pointer-events="none" x="0" y="5" font-size="10px" fill="#2A2C34" font-family="sans-serif"> BhikeBh…</text></g><g class="node" transform="translate(88.81082923479913,-52.631986891845266)"><circle class="outline" cx="0" cy="0" r="25" fill="#F79767" stroke="#f36924" stroke-width="2px"/><text text-anchor="middle" pointer-events="none" font-family="sans-serif" dy="1.5625" font-size="25" fill="#FFFFFF"/><text text-anchor="middle" pointer-events="none" x="0" y="5" font-size="10px" fill="#FFFFFF" font-family="sans-serif"> Rimbik</text></g><g class="node" transform="translate(-15.248993489544038,53.40428011478124)"><circle class="outline" cx="0" cy="0" r="25" fill="#57C7E3" stroke="#23b3d7" stroke-width="2px"/><text text-anchor="middle" pointer-events="none" font-family="sans-serif" dy="1.5625" font-size="25" fill="#2A2C34"/><text text-anchor="middle" pointer-events="none" x="0" y="5" font-size="10px" fill="#2A2C34" font-family="sans-serif"> Sirikhola</text></g><g class="node" transform="translate(44.504876388303146,151.31675559884553)"><circle class="outline" cx="0" cy="0" r="25" fill="#57C7E3" stroke="#23b3d7" stroke-width="2px"/><text text-anchor="middle" pointer-events="none" font-family="sans-serif" dy="1.5625" font-size="25" fill="#2A2C34"/><text text-anchor="middle" pointer-events="none" x="0" y="5" font-size="10px" fill="#2A2C34" font-family="sans-serif"> Gurdum</text></g><g class="node" transform="translate(-51.04685172112398,176.83942466282892)"><circle class="outline" cx="0" cy="0" r="25" fill="#57C7E3" stroke="#23b3d7" stroke-width="2px"/><text text-anchor="middle" pointer-events="none" font-family="sans-serif" dy="1.5625" font-size="25" fill="#2A2C34"/><text text-anchor="middle" pointer-events="none" x="0" y="5" font-size="10px" fill="#2A2C34" font-family="sans-serif"> Rammam</text></g><g class="node" transform="translate(62.76092819335905,237.99158846861678)"><circle class="outline" cx="0" cy="0" r="25" fill="#F16667" stroke="#eb2728" stroke-width="2px"/><text text-anchor="middle" pointer-events="none" font-family="sans-serif" dy="1.5625" font-size="25" fill="#FFFFFF"/><text text-anchor="middle" pointer-events="none" x="0" y="5" font-size="10px" fill="#FFFFFF" font-family="sans-serif"> Sabargr…</text></g></g></svg>